<svg width="22" height="24" viewBox="0 0 22 24" fill="none" xmlns="http://www.w3.org/2000/svg">
    <path d="M21.246 0H0L1.87465 21.246L10.623 23.7456L19.3714 21.246L21.246 0Z" fill="#0277BD" />
    <path d="M10.623 1.87482V21.8086L17.6217 19.809L19.1839 1.87482H10.623Z" fill="#039BE5" />
    <path d="M16.3094 4.99902H10.623V7.49856H13.6849L13.4974 9.99809H10.623V12.4976H13.3725L13.185 15.3096L10.623 16.1844V18.8089L15.5595 17.1842L15.997 9.99809L16.3094 4.99902Z" fill="white" />
    <path d="M10.6233 4.99902V7.49856H5.06182L4.87436 4.99902H10.6233ZM7.74883 9.99809L7.8738 12.4976H10.6233V9.99809H7.74883ZM7.99876 13.7474H5.49924L5.68671 17.1842L10.6233 18.8089V16.1844L8.06127 15.3096L7.99876 13.7474Z" fill="#EEEEEE" />
</svg>
