<svg width="8" height="9" viewBox="0 0 8 9" fill="none" xmlns="http://www.w3.org/2000/svg">
<path d="M7.91574 0L7.19495 8.07915L3.95284 8.97781L0.720174 8.08041L0 0H7.91574Z" fill="#E44D26"/>
<path d="M3.95786 8.29075L6.57747 7.56436L7.19368 0.660614H3.95786V8.29075Z" fill="#F16529"/>
<path d="M2.55577 2.64269H3.95792V1.65198H3.95416H1.47299L1.49679 1.91751L1.7404 4.64856H3.95792V3.65778H2.64657L2.55577 2.64269Z" fill="#EBEBEB"/>
<path d="M2.77927 5.14389H2.24321H1.78418L1.9232 6.70005L3.95348 7.26369L3.95786 7.26243V6.23106L3.95348 6.23232L2.85004 5.93419L2.77927 5.14389Z" fill="#EBEBEB"/>
<path d="M3.95416 4.64857H5.17474L5.05945 5.93363L3.95416 6.23232V7.26314L5.98632 6.70013L6.00074 6.53297L6.2337 3.92401L6.25813 3.65787H5.99066H3.95416V4.64857Z" fill="white"/>
<path d="M3.95416 2.64019V2.64269H6.34521H6.34829L6.36838 2.41975L6.41339 1.91751L6.43726 1.65198H3.95416V2.26758V2.64019Z" fill="white"/>
</svg>
