<svg width="22" height="24" viewBox="0 0 22 24" fill="none" xmlns="http://www.w3.org/2000/svg">
    <path d="M21.1183 0L19.1953 21.5543L10.5457 23.9518L1.92134 21.5576L0 0H21.1183Z" fill="#E44D26"/>
    <path d="M10.5591 22.1189L17.548 20.181L19.1919 1.76254H10.5591V22.1189Z" fill="#F16529"/>
    <path d="M6.81851 7.05039H10.5593V4.40729H10.5493H3.92978L3.99327 5.11569L4.64319 12.4018H10.5593V9.75853H7.06075L6.81851 7.05039Z" fill="#EBEBEB"/>
    <path d="M7.41478 13.7232H5.98463H4.75999L5.13088 17.8749L10.5474 19.3786L10.5591 19.3753V16.6237L10.5474 16.627L7.60358 15.8317L7.41478 13.7232Z" fill="#EBEBEB"/>
    <path d="M10.5493 12.4019H13.8056L13.498 15.8303L10.5493 16.6272V19.3773L15.9708 17.8753L16.0093 17.4293L16.6308 10.4689L16.696 9.75885H15.9824H10.5493V12.4019Z" fill="white"/>
    <path d="M10.5493 7.04372V7.05039H16.9283H16.9365L16.9901 6.45561L17.1102 5.11569L17.1739 4.40729H10.5493V6.04964V7.04372Z" fill="white"/>
    </svg>
