<svg width="32" height="40" viewBox="0 0 32 40" fill="none" xmlns="http://www.w3.org/2000/svg">
    <path d="M14.8151 6.10081C13.2938 7.17082 11.5695 8.38359 10.6456 10.3901C9.04085 13.8906 13.9292 17.709 14.1382 17.8698C14.1867 17.9072 14.2449 17.9259 14.3028 17.9259C14.3643 17.9259 14.426 17.9048 14.476 17.8629C14.573 17.7817 14.6005 17.6439 14.5423 17.5316C14.5246 17.4975 12.7699 14.0892 12.8351 11.6441C12.8582 10.7925 14.05 9.8264 15.3117 8.80359C16.4673 7.86675 17.7773 6.80497 18.5437 5.56288C20.2262 2.82878 18.3562 0.140342 18.3371 0.113461C18.2628 0.00915466 18.1257 -0.0285938 18.0085 0.0227878C17.8914 0.074491 17.8265 0.201112 17.8532 0.326319C17.857 0.344132 18.2207 2.12198 17.2087 3.95365C16.7919 4.71054 15.8759 5.35478 14.8151 6.10081Z" fill="#DB380E" />
    <path d="M21.2249 7.30643C21.3322 7.22559 21.3637 7.07814 21.2988 6.96045C21.2338 6.84277 21.0923 6.79088 20.9667 6.83859C20.7082 6.93685 14.6378 9.27681 14.6378 12.1041C14.6378 14.0531 15.4703 15.0826 16.0782 15.8345C16.3167 16.1294 16.5225 16.3841 16.5904 16.6015C16.7814 17.228 16.3289 18.3605 16.1386 18.744C16.0838 18.8542 16.1106 18.9879 16.2039 19.0684C16.2544 19.1119 16.3173 19.1341 16.3803 19.1341C16.434 19.1341 16.4879 19.1181 16.5344 19.0857C16.6388 19.0132 19.0853 17.2834 18.6465 15.1994C18.4831 14.4073 18.0938 13.8285 17.7504 13.3178C17.2183 12.5265 16.834 11.9549 17.417 10.8992C18.1001 9.66786 21.1936 7.32984 21.2249 7.30643Z" fill="#DB380E" />
    <path d="M6.51081 19.1742C6.41764 19.4532 6.46163 19.7299 6.6379 19.9748C7.22718 20.7929 9.31449 21.2433 12.5156 21.2433C12.5157 21.2433 12.5159 21.2433 12.516 21.2433C12.9497 21.2433 13.4076 21.2348 13.8767 21.218C18.9946 21.0348 20.8929 19.4404 20.9712 19.3726C21.0565 19.2987 21.0793 19.1757 21.0263 19.0762C20.9732 18.9768 20.8588 18.9268 20.7494 18.9569C18.9469 19.449 15.5812 19.6237 13.2467 19.6237C10.6344 19.6237 9.30407 19.4355 8.97836 19.2966C9.14547 19.0671 10.1763 18.6573 11.4536 18.4061C11.5757 18.3821 11.6596 18.2694 11.6475 18.1456C11.6354 18.0217 11.5314 17.9273 11.4069 17.9273C10.6582 17.9273 6.90332 17.9874 6.51081 19.1742Z" fill="#73A1FB" />
    <path d="M23.6365 17.5319C22.5809 17.5319 21.5799 18.061 21.5377 18.0834C21.4401 18.1357 21.3906 18.2477 21.4174 18.3552C21.4443 18.4626 21.5408 18.5381 21.6516 18.5382C21.674 18.5382 23.9033 18.5565 24.1052 19.8302C24.284 20.9291 21.9959 22.7095 21.0991 23.3029C21.0022 23.367 20.9646 23.4908 21.0096 23.5979C21.0479 23.6891 21.1366 23.7461 21.2323 23.7461C21.249 23.7461 21.266 23.7443 21.2828 23.7408C21.4956 23.6952 26.4889 22.5949 25.9609 19.6876C25.6389 17.9059 24.519 17.5319 23.6365 17.5319Z" fill="#73A1FB" />
    <path d="M20.2121 22.9471C20.2295 22.854 20.1908 22.7593 20.1133 22.7048L18.916 21.8662C18.8576 21.8253 18.7838 21.8125 18.7153 21.8306C18.7028 21.8338 17.4508 22.163 15.633 22.3648C14.9116 22.4457 14.1036 22.4884 13.2961 22.4884C11.4788 22.4884 10.2906 22.2749 10.1175 22.1183C10.0946 22.0743 10.1019 22.0543 10.106 22.0432C10.1374 21.9558 10.3059 21.8519 10.4145 21.8108C10.5344 21.7664 10.5991 21.6361 10.5618 21.5138C10.5246 21.3913 10.3984 21.3193 10.2739 21.3492C9.07292 21.639 8.48566 22.0443 8.52839 22.5537C8.60429 23.457 10.6965 23.9206 12.4652 24.0432C12.7196 24.0606 12.9947 24.0694 13.2827 24.0694C13.2828 24.0694 13.283 24.0694 13.2831 24.0694C16.2243 24.0694 19.9948 23.1466 20.0324 23.1372C20.1245 23.1147 20.1947 23.0404 20.2121 22.9471Z" fill="#73A1FB" />
    <path d="M11.1858 24.8857C11.2765 24.8267 11.3167 24.7146 11.2845 24.6114C11.2525 24.5081 11.1559 24.4403 11.0474 24.4417C10.8865 24.446 9.4725 24.5098 9.37351 25.41C9.34356 25.6791 9.42061 25.9249 9.60264 26.1405C10.1103 26.7422 11.4807 27.0998 13.7915 27.2338C14.0648 27.2502 14.3425 27.2584 14.6169 27.2584C17.5547 27.2584 19.5332 26.3386 19.6161 26.2994C19.6964 26.2614 19.7494 26.1825 19.7541 26.0938C19.7588 26.0051 19.7145 25.921 19.6387 25.8746L18.1257 24.9509C18.0732 24.9189 18.0103 24.9083 17.9504 24.9206C17.9409 24.9226 16.9802 25.1218 15.5303 25.3187C15.256 25.356 14.9125 25.3749 14.5094 25.3749C13.0611 25.3749 11.4502 25.1383 11.1412 24.9834C11.1367 24.9544 11.1424 24.9177 11.1858 24.8857Z" fill="#73A1FB" />
    <path d="M13.2478 30.0356C19.9769 30.0299 23.5885 28.8333 24.2843 28.0802C24.5306 27.8138 24.5572 27.5616 24.5363 27.3968C24.4845 26.9914 24.1152 26.7432 24.0734 26.7163C23.9724 26.6513 23.8368 26.6683 23.758 26.7592C23.6794 26.8501 23.6776 26.9829 23.7565 27.0737C23.7989 27.1283 23.8235 27.2196 23.6994 27.3439C23.4212 27.6036 20.6159 28.3922 15.9451 28.6291C15.3053 28.6623 14.6341 28.6792 13.9505 28.6793C9.7685 28.6793 6.70787 28.1065 6.30609 27.7727C6.46094 27.5502 7.54355 27.1947 8.69487 26.9936C8.82461 26.971 8.91225 26.8487 8.89216 26.7186C8.87206 26.5885 8.75211 26.499 8.62098 26.516C8.58851 26.5204 8.47829 26.527 8.35068 26.5348C6.45104 26.6508 4.25581 26.9093 4.14127 27.888C4.10649 28.1863 4.19511 28.457 4.40478 28.6927C4.91781 29.2691 6.39241 30.0355 13.2475 30.0355C13.2477 30.0356 13.2477 30.0356 13.2478 30.0356Z" fill="#73A1FB" />
    <path d="M25.606 28.2924C25.5109 28.2484 25.3984 28.2706 25.3275 28.3472C25.3177 28.3579 24.3059 29.4158 21.264 30.037C20.0995 30.2704 17.9135 30.3887 14.7668 30.3887C11.6143 30.3887 8.61448 30.2647 8.58459 30.2634C8.45929 30.2573 8.35212 30.3484 8.33508 30.4717C8.31797 30.595 8.39744 30.7112 8.51843 30.74C8.54964 30.7473 11.6934 31.4839 15.9919 31.4839C18.0535 31.4839 20.0597 31.3165 21.9548 30.986C25.4883 30.3666 25.7357 28.6145 25.7445 28.5402C25.7568 28.4364 25.7009 28.3364 25.606 28.2924Z" fill="#73A1FB" />
</svg>
