<svg width="22" height="22" viewBox="0 0 22 22" fill="none" xmlns="http://www.w3.org/2000/svg">
    <path d="M0.199997 0.200012H21.8V21.8H0.199997V0.200012Z" fill="#F6DF19" />
    <path d="M5.87936 18.2508L7.53176 17.2505C7.85171 17.8161 8.14196 18.29 8.83992 18.29C9.50682 18.29 9.92802 18.0294 9.92802 17.0142V10.1171H11.9529V17.0466C11.9529 19.15 10.7205 20.1058 8.92226 20.1058C7.30226 20.1058 6.35726 19.2647 5.87801 18.2508" fill="#010101" />
    <path d="M13.0575 18.0336L14.7099 17.0751C15.1446 17.7852 15.7103 18.3076 16.7106 18.3076C17.5517 18.3076 18.089 17.8864 18.089 17.3073C18.089 16.6107 17.5368 16.3623 16.604 15.9573L16.0964 15.7399C14.6316 15.1162 13.6664 14.3332 13.6664 12.6808C13.6664 11.158 14.826 9.99841 16.6364 9.99841C17.9256 9.99841 18.8544 10.448 19.5213 11.6184L17.9405 12.6322C17.5922 12.0099 17.2155 11.7628 16.6364 11.7628C16.0572 11.7628 15.6644 12.1395 15.6644 12.6322C15.6644 13.2411 16.041 13.4881 16.9118 13.8648L17.418 14.0821C19.1447 14.8219 20.118 15.5766 20.118 17.2722C20.118 19.0987 18.683 20.0991 16.7552 20.0991C14.8652 20.0991 13.6502 19.2013 13.0575 18.0268" fill="#010101" />
</svg>
