<svg width="26" height="27" viewBox="0 0 26 27" fill="none" xmlns="http://www.w3.org/2000/svg">
    <path d="M15.261 1.18595C16.9926 0.650932 18.8819 0.508851 20.6423 0.986151C22.0629 1.36799 23.3174 2.2076 24.2121 3.37487C24.5695 3.85883 24.6561 4.48487 24.6761 5.06207C24.6827 6.10429 24.554 7.14295 24.2942 8.15231C23.624 10.8126 22.5224 13.3452 21.033 15.6493C21.8544 16 22.7735 15.8246 23.6216 15.6737C23.9745 15.6049 24.4296 15.5183 24.696 15.8291C24.9624 16.1399 24.696 16.595 24.443 16.8414C23.2109 18.0447 21.3483 18.3599 19.701 18.0824C19.5345 19.5543 19.3592 21.0262 19.1283 22.4914C19.0017 23.3083 18.7287 24.1608 18.0893 24.7247C17.4855 25.2508 16.6929 25.4839 15.9226 25.6304C15.1523 25.777 14.2554 25.6549 13.6382 25.1132C12.9929 24.5121 12.5967 23.6904 12.5283 22.811C12.386 21.3355 12.3289 19.853 12.3574 18.371C11.6429 18.9845 10.7149 19.2909 9.77553 19.2235C9.10953 19.168 8.39025 19.0659 7.89519 18.5864C7.83031 18.5245 7.77947 18.4495 7.74622 18.3661C7.71295 18.283 7.69802 18.1934 7.70244 18.1039C7.70688 18.0144 7.73056 17.9268 7.77188 17.8474C7.81317 17.7677 7.87113 17.6979 7.9418 17.6429C8.46794 17.2455 9.16947 17.2744 9.76887 17.0456C10.2129 16.9147 10.4349 16.4818 10.7212 16.1576C10.2045 16.1224 9.69936 15.9875 9.23385 15.7603C8.52123 16.5173 7.83747 17.301 7.16925 18.098C6.78519 18.5597 6.21687 18.9505 5.58861 18.875C4.88043 18.7884 4.35428 18.2334 3.95912 17.6828C3.1799 16.5728 2.70039 15.2719 2.26082 13.9909C1.58513 11.9351 1.0875 9.82496 0.773424 7.68389C0.622464 6.06995 0.749004 4.31171 1.69028 2.93531C2.43398 1.82531 3.73491 1.23035 5.02029 1.09715C6.76299 0.915112 8.52123 1.27031 10.1574 1.85861C11.5204 0.948411 13.2653 0.821872 14.8193 1.14155C14.9631 1.18136 15.1123 1.19639 15.261 1.18595ZM16.5398 1.62995C16.8794 1.86527 17.259 2.02733 17.5987 2.26043C18.9897 3.21335 20.0854 4.53694 20.7622 6.08105C20.9509 6.52505 21.1463 6.98681 21.1063 7.47743C21.1063 8.48087 20.7711 9.45767 20.8843 10.4656C20.982 11.5289 21.2106 12.619 20.9398 13.6779C20.833 14.0421 20.6961 14.397 20.5313 14.7391C20.5424 14.7901 20.5624 14.8945 20.5713 14.9433C20.6961 14.7786 20.811 14.6066 20.9154 14.4283C22.0061 12.5926 22.8505 10.6213 23.4262 8.56523C23.7535 7.45832 23.9267 6.31166 23.9412 5.15753C23.9213 4.67357 23.8813 4.14299 23.5683 3.75005C22.9062 2.91758 22.033 2.27753 21.0397 1.89635C19.5957 1.38139 18.0343 1.28975 16.5398 1.63217V1.62995ZM12.4218 1.77425C11.8687 1.84768 11.3358 2.03009 10.8537 2.31095C10.3717 2.5918 9.95012 2.9655 9.61346 3.41039C8.70548 4.61363 8.31032 6.13211 8.19488 7.61285C9.1073 7.18661 10.1352 6.78701 11.1541 7.04453C11.4786 7.13353 11.7721 7.31039 12.0025 7.5556C12.2328 7.80081 12.391 8.10488 12.4595 8.43425C12.757 9.74627 12.9189 11.1271 12.6282 12.4547C12.4062 13.5269 11.7402 14.4527 11.5338 15.5294C11.8137 15.5306 12.09 15.5919 12.3441 15.7092C12.5929 15.8554 12.7966 16.0676 12.9323 16.3222C13.0684 16.5768 13.1313 16.8641 13.1143 17.1523C13.0766 18.6152 13.0788 20.0804 13.1543 21.5412C13.1715 22.149 13.2458 22.7541 13.3763 23.3483C13.5983 24.0498 14.08 24.7691 14.8526 24.9023C15.6737 24.9938 16.5025 24.8285 17.2257 24.4294C17.9317 24.0587 18.2492 23.2639 18.369 22.5158C18.6243 20.9618 18.8019 19.3856 18.9818 17.816C19.0595 17.2544 18.9485 16.6394 19.2615 16.1354C19.4413 15.8113 19.7921 15.6604 20.1051 15.5005C19.8291 15.1736 19.5789 14.8254 19.3569 14.4593C18.5799 12.8521 17.5254 11.3336 17.2013 9.54647C17.0615 8.79611 17.1414 7.90145 17.763 7.37753C18.449 6.78923 19.4102 6.82253 20.2583 6.85361C19.7321 5.40464 18.8091 4.13295 17.5943 3.18395C16.1236 2.05017 14.2643 1.54347 12.4218 1.77425ZM4.65176 1.89857C4.1389 1.98204 3.6501 2.17521 3.21871 2.46484C2.78731 2.75448 2.4235 3.1338 2.15204 3.57689C1.46162 4.78013 1.38614 6.22757 1.50602 7.57289C1.76618 9.3463 2.15648 11.0982 2.67374 12.8143C3.11775 14.2662 3.60836 15.7292 4.41644 17.0323C4.71614 17.4764 5.06024 17.9648 5.59748 18.1202C6.05702 18.2156 6.42111 17.836 6.69195 17.5186C7.30245 16.7637 7.97067 16.06 8.60337 15.3229C8.13902 14.9021 7.78236 14.376 7.56335 13.7889C7.34433 13.2018 7.26932 12.5706 7.34462 11.9485C7.47334 10.9922 7.50683 10.0254 7.44452 9.06251C7.35239 7.69124 7.5281 6.31514 7.96178 5.01101C8.2804 4.03786 8.8043 3.14453 9.49803 2.39141C7.93959 1.91411 6.27459 1.58333 4.64955 1.89635L4.65176 1.89857ZM18.298 7.90589C17.8274 8.27441 17.854 8.94485 17.9472 9.47543C18.2847 11.1427 19.257 12.5701 20.0096 14.0664C20.5713 12.9386 20.2316 11.6599 20.1384 10.47C20.0429 9.50873 20.336 8.57411 20.3604 7.61951C19.6677 7.57289 18.893 7.47965 18.2958 7.90367L18.298 7.90589ZM8.16825 8.51861C8.18379 9.32003 8.24151 10.1215 8.18601 10.9229C8.16159 11.6311 7.964 12.3415 8.11274 13.0474C8.33474 14.2973 9.46251 15.4073 10.7767 15.394C10.9654 14.7614 11.1961 14.1421 11.4672 13.5403C12.2553 11.9863 12.1332 10.1614 11.7158 8.52083C11.6543 8.29476 11.5227 8.094 11.3401 7.94726C11.1575 7.80052 10.9331 7.71529 10.699 7.70387C9.79328 7.65503 8.91639 8.03465 8.16825 8.51861ZM19.9985 16.4041C19.7543 16.6261 19.7765 16.9946 19.7765 17.2921C20.3231 17.4497 20.8981 17.483 21.4593 17.3898C22.3051 17.2988 23.1665 17.0168 23.7858 16.4129C22.7713 16.535 21.6591 16.7815 20.7045 16.2775C20.4692 16.1288 20.1939 16.262 19.9985 16.4041ZM10.3749 17.5763C9.80883 17.9115 9.12063 17.8893 8.53233 18.1624C9.72447 18.7684 11.3739 18.5553 12.1998 17.4386C12.6216 17.0479 12.2131 16.2176 11.6536 16.2953C11.1408 16.6305 10.9233 17.281 10.3749 17.5763Z" fill="white" />
    <path d="M18.5158 8.12581C18.6887 8.01032 18.8888 7.94182 19.0962 7.92702C19.3037 7.91222 19.5113 7.95166 19.6991 8.04145C19.6912 8.1548 19.6554 8.26447 19.5955 8.36072C19.535 8.45697 19.4517 8.53687 19.3532 8.59328C19.2546 8.64972 19.1436 8.68095 19.0301 8.68423C18.9164 8.68749 18.8039 8.6627 18.7023 8.612C18.5314 8.5343 18.316 8.2901 18.5158 8.12581Z" fill="white" />
    <path d="M10.2728 8.15453C10.4532 8.10182 10.6432 8.09119 10.8284 8.12352C11.0135 8.15586 11.1887 8.23026 11.3406 8.34101C11.5448 8.5075 11.3583 8.78498 11.1807 8.88044C11.0802 8.94139 10.9666 8.97762 10.8494 8.98615C10.7321 8.99471 10.6145 8.97533 10.5062 8.92962C10.3979 8.88391 10.3019 8.81314 10.2262 8.72319C10.1505 8.63323 10.0972 8.52657 10.0707 8.41205C10.0374 8.27219 10.1573 8.19449 10.2728 8.15453Z" fill="white" />
    <path d="M16.5398 1.63232C18.0341 1.28918 19.5952 1.38008 21.0397 1.89428C22.0328 2.27548 22.906 2.9155 23.5683 3.74797C23.8813 4.14091 23.9213 4.67149 23.9412 5.15545C23.9267 6.30958 23.7533 7.45623 23.4262 8.56315C22.8505 10.62 22.0061 12.592 20.9154 14.4284C20.8061 14.6079 20.686 14.7806 20.5557 14.9456C20.5557 14.8968 20.5269 14.7925 20.5158 14.7414C20.6806 14.3994 20.8172 14.0445 20.9243 13.6802C21.1951 12.6213 20.9664 11.5313 20.8688 10.4679C20.7644 9.46002 21.1085 8.48323 21.0908 7.47979C21.1307 6.98917 20.9354 6.52519 20.7467 6.08341C20.0743 4.54125 18.9837 3.21791 17.5987 2.2628C17.2591 2.0297 16.8794 1.86764 16.5398 1.63232Z" fill="#346791" />
    <path d="M12.4218 1.77437C14.2697 1.54001 16.1355 2.04773 17.61 3.18629C18.8249 4.13529 19.7479 5.40701 20.274 6.85595C19.426 6.82487 18.4647 6.79157 17.7787 7.37987C17.1571 7.90379 17.0772 8.79845 17.2171 9.54881C17.5412 11.3248 18.5957 12.8544 19.3727 14.4617C19.5915 14.8267 19.8389 15.1741 20.112 15.5006C19.799 15.6605 19.446 15.8114 19.2684 16.1356C18.9553 16.6395 19.0664 17.2455 18.9887 17.816C18.8088 19.3856 18.6312 20.9573 18.3759 22.5158C18.256 23.2639 17.9319 24.0587 17.2326 24.4294C16.5084 24.8303 15.6774 24.9963 14.855 24.9045C14.0824 24.7691 13.5963 24.0498 13.3787 23.3505C13.2482 22.7565 13.1737 22.1515 13.1567 21.5434C13.0812 20.0827 13.079 18.6175 13.1167 17.1545C13.1335 16.8656 13.0701 16.5776 12.9332 16.3225C12.7966 16.0674 12.5919 15.8552 12.3419 15.7093C12.0878 15.5954 11.8123 15.5371 11.5338 15.5384C11.7558 14.4639 12.4041 13.5404 12.6283 12.4637C12.9192 11.1317 12.757 9.75527 12.4596 8.44325C12.3914 8.11348 12.2334 7.80895 12.003 7.56334C11.7727 7.31769 11.4789 7.14048 11.1542 7.05131C10.1352 6.79379 9.10735 7.19339 8.19493 7.61963C8.31037 6.13889 8.70553 4.62041 9.61351 3.41717C9.94952 2.97107 10.3708 2.59612 10.8529 2.3141C11.335 2.03209 11.8683 1.84864 12.4218 1.77437Z" fill="#346791" />
    <path d="M4.64957 1.89651C6.27461 1.58349 7.93962 1.91427 9.49807 2.38935C8.80434 3.14247 8.28044 4.03583 7.96182 5.00896C7.52813 6.31311 7.35245 7.68919 7.44456 9.06047C7.50687 10.0234 7.47337 10.9902 7.34466 11.9465C7.27009 12.5679 7.34545 13.1981 7.56444 13.7845C7.78345 14.3708 8.13972 14.8961 8.6034 15.3164C7.9707 16.0535 7.30248 16.7572 6.69197 17.5119C6.42113 17.8294 6.05705 18.209 5.59751 18.1136C5.06027 17.9582 4.70951 17.4675 4.41646 17.0258C3.60838 15.7316 3.11998 14.2686 2.67376 12.8078C2.15649 11.0917 1.76619 9.33984 1.50603 7.5664C1.38615 6.21442 1.46163 4.76698 2.15205 3.57039C2.42371 3.12839 2.7874 2.7501 3.21837 2.46123C3.64935 2.17238 4.13751 1.97978 4.64957 1.89651Z" fill="#346791" />
    <path d="M18.296 7.90372C18.8932 7.4797 19.6746 7.57294 20.3651 7.61734C20.334 8.57193 20.0409 9.50655 20.1431 10.4678C20.2296 11.6577 20.576 12.9364 20.0143 14.0642C19.2617 12.5679 18.2894 11.1405 17.9519 9.47325C17.8498 8.94267 17.8254 8.27224 18.296 7.90372ZM18.518 8.12572C18.3182 8.29 18.5336 8.5342 18.7045 8.6119C18.8061 8.66259 18.9186 8.68737 19.0323 8.68412C19.1458 8.68084 19.2568 8.64961 19.3554 8.59317C19.4539 8.53674 19.5372 8.45687 19.5977 8.36062C19.6576 8.26434 19.6934 8.15468 19.7013 8.04136C19.5133 7.95115 19.3051 7.91149 19.0974 7.92629C18.8895 7.94109 18.689 8.00981 18.5158 8.12572H18.518Z" fill="#346791" />
    <path d="M8.16801 8.51867C8.91615 8.03471 9.79305 7.65509 10.6988 7.70615C10.9328 7.71757 11.1572 7.80279 11.3399 7.94954C11.5225 8.09628 11.654 8.29704 11.7156 8.52311C12.1196 10.1637 12.255 11.9863 11.4669 13.5403C11.1952 14.1414 10.9638 14.7599 10.7743 15.3918C9.45561 15.4073 8.34561 14.2973 8.1236 13.0475C7.96598 12.3415 8.17244 11.6311 8.19686 10.9229C8.24126 10.1215 8.18355 9.32231 8.16801 8.51867ZM10.2726 8.15459C10.1571 8.19455 10.0372 8.27225 10.0506 8.41211C10.0771 8.52666 10.1304 8.63329 10.206 8.72325C10.2817 8.81324 10.3777 8.88396 10.486 8.92969C10.5943 8.9754 10.7119 8.99476 10.8292 8.98622C10.9465 8.97767 11.06 8.94146 11.1606 8.88053C11.3382 8.78063 11.5247 8.50757 11.3204 8.34107C11.1709 8.23335 10.9991 8.16066 10.8178 8.12837C10.6364 8.09608 10.45 8.10506 10.2726 8.15459Z" fill="#346791" />
    <path d="M19.9985 16.404C20.1939 16.2619 20.4691 16.1287 20.6956 16.2864C21.6502 16.7903 22.7624 16.5439 23.7769 16.4218C23.1576 17.0256 22.2962 17.3099 21.4504 17.3987C20.889 17.4919 20.314 17.4586 19.7676 17.301C19.7698 16.9945 19.7543 16.6327 19.9985 16.404Z" fill="#346791" />
    <path d="M10.3748 17.5763C10.9231 17.2811 11.1407 16.6305 11.6535 16.2953C12.213 16.2176 12.6214 17.0479 12.1996 17.4387C11.3738 18.5487 9.72434 18.7707 8.5322 18.1624C9.1205 17.8893 9.8087 17.9115 10.3748 17.5763Z" fill="#346791" />
    <path d="M15.2652 0.442288C16.8547 0.0249276 18.5375 -0.152672 20.1625 0.155908C21.6529 0.417054 23.03 1.12102 24.1141 2.17611C24.587 2.64897 25.0665 3.16623 25.2441 3.83223C25.5638 4.97331 25.4372 6.18099 25.2441 7.33317C24.7401 10.0971 23.6479 12.7255 22.2515 15.1542C22.8798 15.1542 23.4858 14.9522 24.1074 14.9122C24.729 14.8723 25.3728 15.2475 25.5194 15.8668C25.7036 16.5328 25.2974 17.1677 24.8045 17.5762C23.568 18.6862 21.8519 19.0414 20.2358 18.9482C20.1381 20.6154 20.1048 22.3514 19.401 23.8988C19.0935 24.5991 18.5851 25.1923 17.9403 25.6037C17.3039 25.9646 16.6061 26.2046 15.8823 26.3119C15.5094 26.4081 15.1206 26.4291 14.739 26.3738C14.3577 26.3183 13.9909 26.1879 13.6604 25.9895C13.3301 25.7912 13.0422 25.5293 12.8141 25.2185C12.5856 24.9081 12.4212 24.5552 12.3305 24.1807C11.7777 22.7444 11.8332 21.1793 11.7688 19.6675C10.6624 20.0969 9.43908 20.1171 8.31894 19.7252C7.93128 19.5806 7.57976 19.3532 7.28886 19.0592C7.00714 19.3056 6.67025 19.4807 6.30669 19.5695C5.9431 19.6583 5.56346 19.6586 5.19984 19.5698C4.26967 19.3167 3.61255 18.5375 3.11749 17.7538C2.26057 16.3441 1.72333 14.7724 1.24825 13.2006C0.704424 11.3887 0.300656 9.53773 0.0405707 7.66395C-0.0904091 5.99229 0.0649906 4.21629 0.96409 2.76441C1.33725 2.17885 1.8271 1.67656 2.40314 1.28885C2.97913 0.901161 3.6289 0.636389 4.31185 0.511107C6.23214 0.120387 8.21238 0.497788 10.0572 1.07499C10.6403 0.773118 11.2605 0.549193 11.902 0.408988C13.0075 0.182548 14.1552 0.284668 15.2652 0.442288ZM15.2652 1.19043C15.1219 1.196 14.9788 1.178 14.8412 1.13715C13.2694 0.817468 11.5357 0.944007 10.1793 1.85421C8.54316 1.26591 6.78492 0.910708 5.04222 1.09275C3.74797 1.22595 2.44705 1.82757 1.71223 2.93091C0.770949 4.30731 0.644409 6.06555 0.795369 7.67949C1.10304 9.81922 1.59398 11.9286 2.26279 13.9843C2.70679 15.2652 3.18187 16.5573 3.96109 17.6761C4.35625 18.2267 4.88238 18.7861 5.59056 18.8683C6.21882 18.9437 6.78714 18.553 7.1712 18.0913C7.8372 17.2943 8.52318 16.5106 9.2358 15.7536C9.6999 15.9803 10.2034 16.1153 10.7188 16.151C10.439 16.4818 10.2104 16.9147 9.76638 17.039C9.16698 17.261 8.46546 17.2388 7.93932 17.6362C7.86863 17.6912 7.81066 17.7612 7.76937 17.8407C7.72805 17.9201 7.70437 18.0079 7.69996 18.0972C7.69552 18.1867 7.71046 18.2763 7.74372 18.3594C7.77697 18.4428 7.82778 18.518 7.8927 18.5797C8.38776 19.0592 9.11592 19.1613 9.77304 19.2168C10.7124 19.2844 11.6404 18.978 12.3549 18.3643C12.3264 19.8463 12.3835 21.329 12.5258 22.8043C12.5942 23.6837 12.9902 24.5053 13.6357 25.1065C14.2529 25.6481 15.1364 25.7591 15.9201 25.6237C16.7037 25.4883 17.4741 25.2441 18.0868 24.718C18.7262 24.1541 18.9992 23.3016 19.1258 22.4846C19.3478 21.0194 19.532 19.5476 19.6985 18.0757C21.3458 18.3532 23.2083 18.038 24.4404 16.8348C24.7046 16.5883 24.9533 16.1577 24.6935 15.8224C24.4338 15.4872 23.972 15.6004 23.619 15.667C22.771 15.818 21.843 15.9934 21.0305 15.6426C22.5199 13.3386 23.6215 10.806 24.2917 8.14569C24.5514 7.13633 24.68 6.09766 24.6735 5.05545C24.6469 4.47159 24.567 3.85221 24.2096 3.36825C23.3149 2.20097 22.0604 1.36137 20.6398 0.979528C18.8816 0.508888 17.0034 0.650967 15.2607 1.18599L15.2652 1.19043Z" fill="#010101" />
</svg>
