export const ReactComponent = return (<svg width="64" height="66" viewBox="0 0 64 66" fill="none" xmlns="http://www.w3.org/2000/svg">
<g filter="url(#filter0_dd)">
<path d="M12.9664 37.1805L15.0539 35.093L26.8947 46.9338L24.8072 49.0213L12.9664 37.1805Z" fill="white"/>
<path d="M37.01 47.3587L48.8508 35.5179L50.9383 37.6054L39.0975 49.4462L37.01 47.3587Z" fill="white"/>
<path d="M12.2954 45.0677L16.0726 41.2919L20.6886 45.9094L16.9114 49.6852L12.2954 45.0677Z" fill="#FCC00F"/>
<path d="M8.53218 56.7234C6.72612 56.6926 5.28694 55.2036 5.31787 53.3975C5.33242 52.5481 5.67679 51.7377 6.27824 51.1376L8.40968 49.0061L13.0278 53.6243L10.8474 55.7067C10.2448 56.3446 9.40956 56.7113 8.53218 56.7234Z" fill="#FCC00F"/>
<path d="M8.35437 49.01L12.3041 45.0602L16.9208 49.677L12.9711 53.6267L8.35437 49.01Z" fill="#FCC00F"/>
<path d="M36.4369 34.4168L40.8468 30.4724L46.6653 36.9648L42.819 40.7989L36.4369 34.4168Z" fill="url(#paint0_linear)"/>
<path d="M5.84958 14.9889L5.2616 3.2415L17.009 3.82948L32.0026 20.587L23.1583 30.4724L5.84958 14.9889Z" fill="url(#paint1_linear)"/>
<path d="M43.2998 45.894L47.9165 41.2773L51.6931 45.0538L47.0764 49.6705L43.2998 45.894Z" fill="#FCC00F"/>
<path d="M55.4729 56.6989C54.5999 56.6891 53.7668 56.3321 53.1577 55.7067L51.0262 53.5753L55.6444 48.9572L57.7268 51.1376C58.9669 52.4082 58.9669 54.4361 57.7268 55.7067C57.1327 56.3174 56.3245 56.6732 55.4729 56.6989Z" fill="#FCC00F"/>
<path d="M47.0863 49.6869L51.703 45.0702L55.6528 49.0199L51.036 53.6367L47.0863 49.6869Z" fill="#FCC00F"/>
<path d="M32.0026 38.3857L36.4369 34.4168L42.819 40.7989L38.9849 44.6453L32.0026 38.3857Z" fill="url(#paint2_linear)"/>
<path d="M17.3397 36.9648L46.9961 3.82948L58.7435 3.2415L58.1555 14.9889L25.0203 44.6453L17.3397 36.9648Z" fill="url(#paint3_linear)"/>
<path d="M56.5019 48.1482L52.5697 44.1916L49.6543 41.2762L52.239 38.6915C52.714 38.2138 52.714 37.442 52.239 36.9643L49.4461 34.1714C48.9683 33.6964 48.1966 33.6964 47.7189 34.1714L46.7144 35.1758L42.5863 30.5577L58.9518 15.9072C59.1962 15.6871 59.3418 15.3781 59.356 15.0497L59.944 3.30227C59.9629 2.95561 59.8338 2.61721 59.5888 2.3713C59.3429 2.12631 59.0045 1.99722 58.6578 2.01606L46.9104 2.59179C46.582 2.60603 46.273 2.75165 46.0529 2.99603L32.0026 18.7491L17.9278 3.03278C17.7077 2.7884 17.3987 2.64278 17.0703 2.62854L5.32288 2.05281C4.97622 2.03397 4.63782 2.16305 4.39191 2.40805C4.14692 2.65396 4.01784 2.99236 4.03667 3.33902L4.62465 15.0864C4.63889 15.4149 4.78451 15.7239 5.02889 15.9439L21.4189 30.6435L17.303 35.1881L16.2986 34.1836C15.8208 33.7086 15.0491 33.7086 14.5714 34.1836L11.7784 36.9765C11.3035 37.4543 11.3035 38.226 11.7784 38.7037L14.3631 41.2884L11.4354 44.1916L5.31063 50.3164C3.55847 52.0755 3.56399 54.922 5.32303 56.6741C6.16259 57.5103 7.29829 57.9813 8.48329 57.9847C9.67334 57.9887 10.8156 57.5167 11.6559 56.674L20.6472 47.6827L23.2319 50.2674C23.7096 50.7424 24.4813 50.7424 24.9591 50.2674L27.752 47.4745C28.2269 46.9968 28.2269 46.225 27.752 45.7473L26.7965 44.6816L32.0026 40.0389L37.2087 44.6816L36.2042 45.686C35.7292 46.1638 35.7292 46.9355 36.2042 47.4132L38.9971 50.2062C39.4749 50.6811 40.2466 50.6811 40.7243 50.2062L43.309 47.6215L46.2244 50.5369L50.1688 54.4813L52.3002 56.6127C54.0418 58.3823 56.8882 58.405 58.6578 56.6634C60.4274 54.9218 60.4501 52.0755 58.7085 50.3058C58.6916 50.2888 58.6748 50.2718 58.6578 50.2552L56.5019 48.1482ZM44.9505 36.9153L42.7945 39.0712L38.1887 34.4654L40.7243 32.1992L44.9505 36.9153ZM6.97658 14.4127L6.4866 4.52724L16.3721 5.01722L30.2876 20.5743L27.4457 23.7469L22.3009 18.6021C21.787 18.162 13.4401 10.4861 13 11C12.6073 11.4586 20.1809 19.8707 20.5737 20.3293L25.8778 25.5844L23.0604 28.757L6.97658 14.4127ZM9.90424 54.8365C9.52175 55.2215 9.00145 55.4375 8.45879 55.4368C7.33213 55.3532 6.48644 54.372 6.5702 53.2453C6.60358 52.7947 6.78533 52.3679 7.08683 52.0313L8.31179 50.8064L11.1782 53.6361L9.90424 54.8365ZM12.8932 51.8476L10.0757 49.0179L12.2929 46.8008L15.1838 49.6917L12.8932 51.8476ZM16.8498 47.891L13.9589 45.0001L16.0781 43.0156L18.969 45.9065L16.8498 47.891ZM24.0771 47.5602L21.5047 44.9878L16.8865 40.3697L14.3631 37.834L15.4166 36.7805L25.2163 46.5803L24.0771 47.5602ZM24.9958 42.8931L22.8399 40.7372L43.2968 20.2803C43.8106 19.8402 51.4401 11.5139 51 11C50.56 10.4861 42.2171 17.9793 41.7032 18.4194C41.6553 18.4604 41.6106 18.5051 41.5696 18.5531L21.1127 39.01L18.9567 36.854L23.9791 31.2437L47.5719 5.02947L57.4573 4.53948L56.9674 14.4249L40.0384 29.5533L24.9958 42.8931ZM33.7665 38.324L36.4002 36.1068L41.0918 40.7984L38.9359 42.9544L33.7665 38.324ZM42.3413 44.9756L39.8546 47.6215L38.8011 46.568L48.6009 36.7683L49.6543 37.8218L47.0696 40.4064L42.3413 44.9756ZM44.9382 45.8453L47.9271 43.0156L49.9728 45.0613L47.0819 47.9522L44.9382 45.8453ZM50.9405 51.8476L48.7234 49.6304L51.6143 46.7395L53.8314 48.9567L50.9405 51.8476ZM56.8204 54.8365C56.0111 55.6081 54.7387 55.6081 53.9294 54.8365L52.7045 53.6116L55.6566 50.8064L56.8816 52.0313C57.6732 52.817 57.6895 54.092 56.9184 54.8978L56.8204 54.8365Z" fill="#3A302B"/>
</g>
<g filter="url(#filter1_dd)">
<path d="M49.3141 14.9045L49.3141 14.9045C49.644 15.0034 49.8698 15.3069 49.8698 15.6514V34.5008C49.8698 36.8116 48.9353 39.2158 47.0264 41.6519C45.5676 43.5135 43.5368 45.3982 40.9794 47.2495C36.6791 50.3623 32.4404 52.2736 32.273 52.3485L32.2726 52.3487C32.1716 52.394 32.0631 52.4167 31.9543 52.4167C31.8456 52.4167 31.737 52.394 31.6357 52.3486L31.6355 52.3485C31.4681 52.2736 27.2293 50.3623 22.929 47.2495C20.3715 45.3982 18.3408 43.5135 16.882 41.6519C14.9731 39.2157 14.0385 36.8115 14.0385 34.5008V15.6514C14.0385 15.307 14.2644 15.0034 14.5941 14.9045L14.5942 14.9045L31.7301 9.76369L31.7301 9.76369C31.8764 9.71979 32.0322 9.71981 32.1784 9.76367L32.1784 9.76369L49.3141 14.9045ZM31.9543 52.9167C32.1326 52.9167 32.3109 52.8795 32.4772 52.8049C32.657 52.7244 36.9316 50.7968 41.2726 47.6545C43.8566 45.7839 45.9249 43.8681 47.4199 41.9603C49.3774 39.4624 50.3698 36.9526 50.3698 34.5008V15.6514C50.3698 15.0862 49.9992 14.5879 49.4577 14.4256L32.3221 9.28478C32.0822 9.21277 31.8265 9.21277 31.5864 9.28478L14.4505 14.4256C13.9092 14.5879 13.5385 15.0862 13.5385 15.6514V34.5008C13.5385 36.9525 14.531 39.4623 16.4884 41.9603C17.9834 43.8681 20.0517 45.7839 22.6358 47.6545C26.9768 50.7968 31.2515 52.7244 31.4313 52.8049C31.5976 52.8794 31.776 52.9167 31.9543 52.9167Z" fill="url(#paint4_radial)" stroke="url(#paint5_linear)"/>
</g>
<defs>
<filter id="filter0_dd" x="0" y="2" width="64" height="64" filterUnits="userSpaceOnUse" color-interpolation-filters="sRGB">
<feFlood flood-opacity="0" result="BackgroundImageFix"/>
<feColorMatrix in="SourceAlpha" type="matrix" values="0 0 0 0 0 0 0 0 0 0 0 0 0 0 0 0 0 0 127 0"/>
<feOffset dy="4"/>
<feGaussianBlur stdDeviation="2"/>
<feColorMatrix type="matrix" values="0 0 0 0 0 0 0 0 0 0 0 0 0 0 0 0 0 0 0.25 0"/>
<feBlend mode="normal" in2="BackgroundImageFix" result="effect1_dropShadow"/>
<feColorMatrix in="SourceAlpha" type="matrix" values="0 0 0 0 0 0 0 0 0 0 0 0 0 0 0 0 0 0 127 0"/>
<feOffset dy="4"/>
<feGaussianBlur stdDeviation="2"/>
<feColorMatrix type="matrix" values="0 0 0 0 0 0 0 0 0 0 0 0 0 0 0 0 0 0 0.25 0"/>
<feBlend mode="normal" in2="effect1_dropShadow" result="effect2_dropShadow"/>
<feBlend mode="normal" in="SourceGraphic" in2="effect2_dropShadow" result="shape"/>
</filter>
<filter id="filter1_dd" x="-2" y="0" width="68" height="68" filterUnits="userSpaceOnUse" color-interpolation-filters="sRGB">
<feFlood flood-opacity="0" result="BackgroundImageFix"/>
<feColorMatrix in="SourceAlpha" type="matrix" values="0 0 0 0 0 0 0 0 0 0 0 0 0 0 0 0 0 0 127 0"/>
<feOffset dy="4"/>
<feGaussianBlur stdDeviation="2"/>
<feColorMatrix type="matrix" values="0 0 0 0 0 0 0 0 0 0 0 0 0 0 0 0 0 0 0.25 0"/>
<feBlend mode="normal" in2="BackgroundImageFix" result="effect1_dropShadow"/>
<feColorMatrix in="SourceAlpha" type="matrix" values="0 0 0 0 0 0 0 0 0 0 0 0 0 0 0 0 0 0 127 0"/>
<feOffset dy="4"/>
<feGaussianBlur stdDeviation="2"/>
<feColorMatrix type="matrix" values="0 0 0 0 0 0 0 0 0 0 0 0 0 0 0 0 0 0 0.25 0"/>
<feBlend mode="normal" in2="effect1_dropShadow" result="effect2_dropShadow"/>
<feBlend mode="normal" in="SourceGraphic" in2="effect2_dropShadow" result="shape"/>
</filter>
<linearGradient id="paint0_linear" x1="41.5511" y1="30.4724" x2="41.5511" y2="40.7989" gradientUnits="userSpaceOnUse">
<stop stop-color="#D7D5D2"/>
<stop offset="1" stop-color="#686868"/>
</linearGradient>
<linearGradient id="paint1_linear" x1="18.6321" y1="3.2415" x2="18.6321" y2="30.4724" gradientUnits="userSpaceOnUse">
<stop stop-color="#D7D5D2"/>
<stop offset="1" stop-color="#686868"/>
</linearGradient>
<linearGradient id="paint2_linear" x1="37.4108" y1="34.4168" x2="37.4108" y2="44.6453" gradientUnits="userSpaceOnUse">
<stop stop-color="#DBDBDB"/>
<stop offset="0.864583" stop-color="#848484"/>
</linearGradient>
<linearGradient id="paint3_linear" x1="38.0416" y1="3.2415" x2="38.0416" y2="44.6453" gradientUnits="userSpaceOnUse">
<stop stop-color="#DBDBDB"/>
<stop offset="0.864583" stop-color="#848484"/>
</linearGradient>
<radialGradient id="paint4_radial" cx="0" cy="0" r="1" gradientUnits="userSpaceOnUse" gradientTransform="translate(47.0762 22.6726) rotate(116.565) scale(33.8139 28.5083)">
<stop stop-color="#999999"/>
<stop offset="1" stop-color="#414141"/>
</radialGradient>
<linearGradient id="paint5_linear" x1="31.9541" y1="9.23077" x2="31.9541" y2="52.9167" gradientUnits="userSpaceOnUse">
<stop offset="0.192708" stop-color="#818181"/>
<stop offset="1"/>
</linearGradient>
</defs>
</svg>
