<svg width="56" height="56" viewBox="0 0 56 56" fill="none" xmlns="http://www.w3.org/2000/svg">
<path d="M8.96643 35.1805L11.0539 33.093L22.8947 44.9338L20.8072 47.0213L8.96643 35.1805Z" fill="white"/>
<path d="M33.01 45.3587L44.8508 33.5179L46.9383 35.6054L35.0975 47.4462L33.01 45.3587Z" fill="white"/>
<path d="M8.29541 43.0677L12.0726 39.2919L16.6886 43.9094L12.9114 47.6852L8.29541 43.0677Z" fill="#FCC00F"/>
<path d="M4.53218 54.7234C2.72612 54.6926 1.28694 53.2036 1.31787 51.3975C1.33242 50.5481 1.67679 49.7377 2.27824 49.1376L4.40968 47.0061L9.0278 51.6243L6.84736 53.7067C6.24483 54.3446 5.40956 54.7113 4.53218 54.7234Z" fill="#FCC00F"/>
<path d="M4.35437 47.01L8.30411 43.0602L12.9208 47.677L8.97111 51.6267L4.35437 47.01Z" fill="#FCC00F"/>
<path d="M32.4369 32.4168L36.8468 28.4724L42.6653 34.9648L38.819 38.7989L32.4369 32.4168Z" fill="url(#paint0_linear)"/>
<path d="M1.84958 12.9889L1.2616 1.2415L13.009 1.82948L28.0026 18.587L19.1583 28.4724L1.84958 12.9889Z" fill="url(#paint1_linear)"/>
<path d="M39.2998 43.894L43.9165 39.2773L47.6931 43.0538L43.0764 47.6705L39.2998 43.894Z" fill="#FCC00F"/>
<path d="M51.4729 54.6989C50.5999 54.6891 49.7668 54.3321 49.1577 53.7067L47.0262 51.5753L51.6444 46.9572L53.7268 49.1376C54.9669 50.4082 54.9669 52.4361 53.7268 53.7067C53.1327 54.3174 52.3245 54.6732 51.4729 54.6989Z" fill="#FCC00F"/>
<path d="M43.0863 47.6869L47.703 43.0702L51.6528 47.0199L47.036 51.6367L43.0863 47.6869Z" fill="#FCC00F"/>
<path d="M28.0026 36.3857L32.4369 32.4168L38.819 38.7989L34.9849 42.6453L28.0026 36.3857Z" fill="url(#paint2_linear)"/>
<path d="M13.3397 34.9648L42.9961 1.82948L54.7435 1.2415L54.1555 12.9889L21.0203 42.6453L13.3397 34.9648Z" fill="url(#paint3_linear)"/>
<path d="M52.5019 46.1482L48.5697 42.1916L45.6543 39.2762L48.239 36.6915C48.714 36.2138 48.714 35.442 48.239 34.9643L45.4461 32.1714C44.9683 31.6964 44.1966 31.6964 43.7189 32.1714L42.7144 33.1758L38.5863 28.5577L54.9518 13.9072C55.1962 13.6871 55.3418 13.3781 55.356 13.0497L55.944 1.30227C55.9629 0.955606 55.8338 0.61721 55.5888 0.371298C55.3429 0.126305 55.0045 -0.0027752 54.6578 0.0160586L42.9104 0.591792C42.582 0.606032 42.273 0.75165 42.0529 0.99603L28.0026 16.7491L13.9278 1.03278C13.7077 0.788399 13.3987 0.642781 13.0703 0.628541L1.32288 0.0528076C0.976216 0.0339737 0.63782 0.163054 0.391909 0.408047C0.146916 0.653959 0.0178352 0.992355 0.0366691 1.33902L0.624652 13.0864C0.638892 13.4149 0.784509 13.7239 1.02889 13.9439L17.4189 28.6435L13.303 33.1881L12.2986 32.1836C11.8208 31.7086 11.0491 31.7086 10.5714 32.1836L7.77844 34.9765C7.30346 35.4543 7.30346 36.226 7.77844 36.7037L10.3631 39.2884L7.43545 42.1916L1.31063 48.3164C-0.441526 50.0755 -0.436014 52.922 1.32303 54.6741C2.16259 55.5103 3.29829 55.9813 4.48329 55.9847C5.67334 55.9887 6.81562 55.5167 7.65594 54.674L16.6472 45.6827L19.2319 48.2674C19.7096 48.7424 20.4813 48.7424 20.9591 48.2674L23.752 45.4745C24.2269 44.9968 24.2269 44.225 23.752 43.7473L22.7965 42.6816L28.0026 38.0389L33.2087 42.6816L32.2042 43.686C31.7292 44.1638 31.7292 44.9355 32.2042 45.4132L34.9971 48.2062C35.4749 48.6811 36.2466 48.6811 36.7243 48.2062L39.309 45.6215L42.2244 48.5369L46.1688 52.4813L48.3002 54.6127C50.0418 56.3823 52.8882 56.405 54.6578 54.6634C56.4274 52.9218 56.4501 50.0755 54.7085 48.3058C54.6916 48.2888 54.6748 48.2718 54.6578 48.2552L52.5019 46.1482ZM40.9505 34.9153L38.7945 37.0712L34.1887 32.4654L36.7243 30.1992L40.9505 34.9153ZM2.97658 12.4127L2.4866 2.52724L12.3721 3.01722L26.2876 18.5743L23.4457 21.7469L18.3009 16.6021C17.787 16.162 9.4401 8.48613 9.00003 9C8.60728 9.4586 16.1809 17.8707 16.5737 18.3293L21.8778 23.5844L19.0604 26.757L2.97658 12.4127ZM5.90424 52.8365C5.52175 53.2215 5.00145 53.4375 4.45879 53.4368C3.33213 53.3532 2.48644 52.372 2.5702 51.2453C2.60358 50.7947 2.78533 50.3679 3.08683 50.0313L4.31179 48.8064L7.17821 51.6361L5.90424 52.8365ZM8.89316 49.8476L6.07574 47.0179L8.29292 44.8008L11.1838 47.6917L8.89316 49.8476ZM12.8498 45.891L9.95888 43.0001L12.0781 41.0156L14.969 43.9065L12.8498 45.891ZM20.0771 45.5602L17.5047 42.9878L12.8865 38.3697L10.3631 35.834L11.4166 34.7805L21.2163 44.5803L20.0771 45.5602ZM20.9958 40.8931L18.8399 38.7372L39.2968 18.2803C39.8106 17.8402 47.4401 9.51387 47 9C46.56 8.48613 38.2171 15.9793 37.7032 16.4194C37.6553 16.4604 37.6106 16.5051 37.5696 16.5531L17.1127 37.01L14.9567 34.854L19.9791 29.2437L43.5719 3.02947L53.4573 2.53948L52.9674 12.4249L36.0384 27.5533L20.9958 40.8931ZM29.7665 36.324L32.4002 34.1068L37.0918 38.7984L34.9359 40.9544L29.7665 36.324ZM38.3413 42.9756L35.8546 45.6215L34.8011 44.568L44.6009 34.7683L45.6543 35.8218L43.0696 38.4064L38.3413 42.9756ZM40.9382 43.8453L43.9271 41.0156L45.9728 43.0613L43.0819 45.9522L40.9382 43.8453ZM46.9405 49.8476L44.7234 47.6304L47.6143 44.7395L49.8314 46.9567L46.9405 49.8476ZM52.8204 52.8365C52.0111 53.6081 50.7387 53.6081 49.9294 52.8365L48.7045 51.6116L51.6566 48.8064L52.8816 50.0313C53.6732 50.817 53.6895 52.092 52.9184 52.8978L52.8204 52.8365Z" fill="#3A302B"/>
<path d="M45.3141 12.9045L45.3141 12.9045C45.644 13.0034 45.8698 13.3069 45.8698 13.6514V32.5008C45.8698 34.8116 44.9353 37.2158 43.0264 39.6519C41.5676 41.5135 39.5368 43.3982 36.9794 45.2495C32.6791 48.3623 28.4404 50.2736 28.273 50.3485L28.2726 50.3487C28.1716 50.394 28.0631 50.4167 27.9543 50.4167C27.8456 50.4167 27.737 50.394 27.6357 50.3486L27.6355 50.3485C27.4681 50.2736 23.2293 48.3623 18.929 45.2495C16.3715 43.3982 14.3408 41.5135 12.882 39.6519C10.9731 37.2157 10.0385 34.8115 10.0385 32.5008V13.6514C10.0385 13.307 10.2644 13.0034 10.5941 12.9045L10.5942 12.9045L27.7301 7.76369L27.7301 7.76369C27.8764 7.71979 28.0322 7.71981 28.1784 7.76367L28.1784 7.76369L45.3141 12.9045ZM27.9543 50.9167C28.1326 50.9167 28.3109 50.8795 28.4772 50.8049C28.657 50.7244 32.9316 48.7968 37.2726 45.6545C39.8566 43.7839 41.9249 41.8681 43.4199 39.9603C45.3774 37.4624 46.3698 34.9526 46.3698 32.5008V13.6514C46.3698 13.0862 45.9992 12.5879 45.4577 12.4256L28.3221 7.28478C28.0822 7.21277 27.8265 7.21277 27.5864 7.28478L10.4505 12.4256C9.90919 12.5879 9.53845 13.0862 9.53845 13.6514V32.5008C9.53845 34.9525 10.531 37.4623 12.4884 39.9603C13.9834 41.8681 16.0517 43.7839 18.6358 45.6545C22.9768 48.7968 27.2515 50.7244 27.4313 50.8049C27.5976 50.8794 27.776 50.9167 27.9543 50.9167Z" fill="url(#paint4_radial)" stroke="url(#paint5_linear)"/>
<defs>
<linearGradient id="paint0_linear" x1="37.5511" y1="28.4724" x2="37.5511" y2="38.7989" gradientUnits="userSpaceOnUse">
<stop stop-color="#D7D5D2"/>
<stop offset="1" stop-color="#686868"/>
</linearGradient>
<linearGradient id="paint1_linear" x1="14.6321" y1="1.2415" x2="14.6321" y2="28.4724" gradientUnits="userSpaceOnUse">
<stop stop-color="#D7D5D2"/>
<stop offset="1" stop-color="#686868"/>
</linearGradient>
<linearGradient id="paint2_linear" x1="33.4108" y1="32.4168" x2="33.4108" y2="42.6453" gradientUnits="userSpaceOnUse">
<stop stop-color="#DBDBDB"/>
<stop offset="0.864583" stop-color="#848484"/>
</linearGradient>
<linearGradient id="paint3_linear" x1="34.0416" y1="1.2415" x2="34.0416" y2="42.6453" gradientUnits="userSpaceOnUse">
<stop stop-color="#DBDBDB"/>
<stop offset="0.864583" stop-color="#848484"/>
</linearGradient>
<radialGradient id="paint4_radial" cx="0" cy="0" r="1" gradientUnits="userSpaceOnUse" gradientTransform="translate(43.0762 20.6726) rotate(116.565) scale(33.8139 28.5083)">
<stop stop-color="#999999"/>
<stop offset="1" stop-color="#414141"/>
</radialGradient>
<linearGradient id="paint5_linear" x1="27.9541" y1="7.23077" x2="27.9541" y2="50.9167" gradientUnits="userSpaceOnUse">
<stop offset="0.192708" stop-color="#818181"/>
<stop offset="1"/>
</linearGradient>
</defs>
</svg>
