<svg width="21" height="21" viewBox="0 0 21 21" fill="none" xmlns="http://www.w3.org/2000/svg">
    <path d="M15.3702 16.4148C15.1837 16.4148 14.9973 16.3443 14.8512 16.2082C14.5488 15.921 14.5337 15.4423 14.8209 15.1399L19.1998 10.499L14.8209 5.85812C14.5337 5.55578 14.5488 5.07708 14.8512 4.78985C15.1535 4.50263 15.6322 4.51775 15.9194 4.82009L20.7921 9.98001C21.0693 10.2723 21.0693 10.7258 20.7921 11.018L15.9194 16.178C15.7683 16.3342 15.5667 16.4148 15.3702 16.4148Z" fill="#00BBD3" />
    <path d="M5.62981 16.4148C5.42825 16.4148 5.22669 16.3342 5.08056 16.178L0.207858 11.018C-0.0692861 10.7258 -0.0692861 10.2723 0.207858 9.98001L5.08056 4.82009C5.36779 4.51775 5.84649 4.50263 6.14883 4.78985C6.45117 5.07708 6.46629 5.55578 6.17906 5.85812L1.79514 10.499L6.17403 15.1399C6.46125 15.4423 6.44613 15.921 6.14379 16.2082C5.99766 16.3443 5.81122 16.4148 5.62981 16.4148Z" fill="#00BBD3" />
    <path d="M9.33851 18.8386C9.2982 18.8386 9.26293 18.8335 9.22261 18.8285C8.80942 18.763 8.52723 18.38 8.5877 17.9668L10.9056 2.80451C10.9711 2.39131 11.3541 2.10912 11.7673 2.16959C12.1805 2.2351 12.4627 2.61806 12.4022 3.03126L10.0843 18.1936C10.0289 18.5715 9.70636 18.8386 9.33851 18.8386Z" fill="#00BBD3" />
</svg>
