<svg width="22" height="22" viewBox="0 0 22 22" fill="none" xmlns="http://www.w3.org/2000/svg">
    <g clip-path="url(#clip0)">
    <path d="M19.822 14.1791L18.8687 16.4781C18.8375 16.5556 18.7763 16.6173 18.6989 16.6491C18.6216 16.6808 18.5347 16.68 18.458 16.6467L17.7687 16.3607L16.863 15.9867C16.775 16.1114 16.6833 16.2324 16.5917 16.3497C16.1679 16.8789 15.6702 17.3445 15.114 17.7321L15.774 19.3307C15.8069 19.4069 15.8075 19.4932 15.7758 19.5699C15.744 19.6466 15.6825 19.7071 15.6053 19.7377L13.3063 20.6911C13.2301 20.7235 13.144 20.7238 13.0674 20.6921C12.9909 20.6604 12.9303 20.5992 12.8993 20.5224L12.8517 20.4051L12.2357 18.9237C11.8718 18.993 11.5024 19.0298 11.132 19.0337C10.8937 19.0374 10.6553 19.0301 10.417 19.0117C10.198 18.9965 9.98003 18.9683 9.76433 18.9274L9.72033 19.0337L9.10433 20.5224C9.07315 20.6 9.01194 20.6616 8.9346 20.6934C8.85726 20.7252 8.77036 20.7243 8.69366 20.6911L8.00433 20.4051L6.39466 19.7377C6.3175 19.7071 6.25601 19.6466 6.22423 19.5699C6.19245 19.4932 6.19309 19.4069 6.22599 19.3307L6.88599 17.7357C6.20568 17.2589 5.6138 16.667 5.13699 15.9867L4.26066 16.3497L3.53833 16.6467C3.37936 16.7117 3.19775 16.6364 3.13133 16.4781L3.08366 16.3607L2.18166 14.1754C2.11602 14.0174 2.18955 13.836 2.34666 13.7684L3.63733 13.2367L4.42566 12.7344L5.13333 12.2834L5.62833 12.7894L6.20766 13.3834C6.89625 15.1734 8.52258 16.4323 10.428 16.6504C10.6179 16.6726 10.8088 16.6836 11 16.6834C13.1271 16.6832 15.0334 15.3705 15.7923 13.3834L16.6687 12.7161L17.2333 12.2834L18.7073 13.3761H18.711L19.6533 13.7684C19.7304 13.8002 19.7915 13.8615 19.8232 13.9386C19.8548 14.0157 19.8544 14.1023 19.822 14.1791V14.1791Z" fill="#37474F"/>
    <path d="M18.6743 14.1791L17.7687 16.3607L16.863 15.9867C16.775 16.1114 16.6833 16.2324 16.5917 16.3497L15.7153 15.9867C15.2394 16.6668 14.6474 17.2576 13.9663 17.7321L14.6263 19.3307C14.6592 19.4069 14.6599 19.4932 14.6281 19.5699C14.5963 19.6466 14.5348 19.7071 14.4577 19.7377L12.8517 20.4051L12.2357 18.9237C11.8718 18.993 11.5024 19.0298 11.132 19.0337L11.088 18.9237C10.8643 18.9641 10.6407 18.9934 10.417 19.0117C10.1823 19.0301 9.95133 19.0374 9.72033 19.0337C9.35009 19.0296 8.98088 18.994 8.61666 18.9274L8.00433 20.4051L6.39466 19.7377C6.3175 19.7071 6.25601 19.6466 6.22423 19.5699C6.19245 19.4932 6.19309 19.4069 6.22599 19.3307L6.88599 17.7357C6.20568 17.2589 5.6138 16.667 5.13699 15.9867L4.26066 16.3497C4.16899 16.2324 4.07733 16.1114 3.98933 15.9867L3.08366 16.3607L2.18166 14.1754C2.11602 14.0174 2.18955 13.8361 2.34666 13.7684L3.63733 13.2367L5.62833 12.7894L5.86666 12.7344L6.50099 13.3834C6.71733 13.9444 6.90433 14.4577 7.12066 14.9051C7.63399 15.9941 8.30133 16.6834 9.85233 16.6834C10.0447 16.6835 10.2369 16.6725 10.428 16.6504C10.6179 16.6726 10.8088 16.6836 11 16.6834C13.1271 16.6832 15.0334 15.3705 15.7923 13.3834L16.6687 12.7161L17.5597 13.3761H17.5633L18.5057 13.7684C18.5827 13.8002 18.6438 13.8615 18.6755 13.9386C18.7072 14.0157 18.7068 14.1023 18.6743 14.1791V14.1791Z" fill="#607D8B"/>
    <path d="M21.6333 10.2667C21.6322 11.9875 20.2375 13.3822 18.5167 13.3833H4.76666C2.33661 13.3833 0.366661 11.4134 0.366661 8.98335C0.366661 6.5533 2.33661 4.58335 4.76666 4.58335C4.88033 4.58335 4.99033 4.58701 5.10033 4.59801C5.8552 2.60497 7.76316 1.28577 9.89437 1.28333C12.0256 1.28089 13.9366 2.59571 14.696 4.58701C14.7473 4.58335 14.7987 4.58335 14.85 4.58335C16.4817 4.58315 17.9362 5.61162 18.48 7.15002H18.5167C20.2375 7.15117 21.6322 8.54587 21.6333 10.2667Z" fill="#0377BC"/>
    <path d="M20.5333 10.2667C20.5755 11.9426 19.2537 13.3365 17.578 13.3834H4.53933C2.2338 13.3834 0.366661 11.4144 0.366661 8.98339C0.366661 6.55239 2.2338 4.58339 4.53907 4.58339C4.64472 4.58272 4.75033 4.58762 4.85547 4.59805C5.51847 2.64145 7.34125 1.31398 9.4069 1.28339C11.4682 1.31442 13.288 2.63637 13.9548 4.58705C14.0035 4.58339 14.0522 4.58339 14.1009 4.58339C15.6814 4.60813 17.0684 5.64233 17.5431 7.15005H17.578C19.2537 7.1969 20.5755 8.59088 20.5333 10.2667V10.2667Z" fill="#02A9F4"/>
    <path d="M18.5167 13.75H4.76667C2.13411 13.75 0 11.6159 0 8.98336C0 6.3508 2.13411 4.21669 4.76667 4.21669C4.79783 4.21669 4.82878 4.21688 4.8594 4.21757C5.73379 2.21277 7.71307 0.916687 9.90025 0.916687C12.0874 0.916687 14.0667 2.21277 14.9411 4.21757C16.601 4.255 18.0849 5.26158 18.7335 6.79C20.6122 6.90613 22.0588 8.49376 22.0002 10.3751C21.9416 12.2565 20.399 13.7511 18.5167 13.75ZM4.76667 4.95003C2.53912 4.95003 0.733333 6.75581 0.733333 8.98336C0.733333 11.2109 2.53912 13.0167 4.76667 13.0167H18.5167C20.0354 13.0167 21.2667 11.7855 21.2667 10.2667C21.2667 8.74791 20.0354 7.51669 18.5167 7.51669H18.48C18.3246 7.51669 18.186 7.41869 18.1343 7.27213C17.6406 5.87216 16.3131 4.93959 14.8287 4.95003C14.7929 4.95003 14.7573 4.95021 14.7216 4.9527C14.5608 4.96294 14.4118 4.86785 14.3533 4.71763C13.6482 2.86859 11.8738 1.64767 9.89488 1.6499C7.91596 1.65213 6.1443 2.87705 5.44335 4.72768C5.38486 4.88321 5.22893 4.97981 5.06363 4.96293C4.96492 4.95365 4.86581 4.94934 4.76667 4.95003V4.95003Z" fill="black"/>
    <path d="M2.48252 11.1833C2.37184 11.1835 2.26704 11.1336 2.19751 11.0474C1.56228 10.2611 1.32374 9.22641 1.55058 8.24132C1.77742 7.25623 2.44446 6.43008 3.35962 6.00075C3.54275 5.91423 3.76134 5.99254 3.84786 6.17566C3.93438 6.35879 3.85607 6.57738 3.67294 6.6639C2.77649 7.08913 2.20367 7.99114 2.2 8.98332C2.19775 9.56708 2.39823 10.1335 2.7672 10.5859C2.85614 10.6957 2.87406 10.8468 2.81328 10.9744C2.7525 11.1019 2.62383 11.1832 2.48252 11.1833V11.1833Z" fill="black"/>
    <path d="M6.23333 11.5502C6.11548 11.55 6.00488 11.4933 5.93599 11.3977C5.86711 11.3021 5.84831 11.1792 5.88548 11.0673L7.35214 6.66734C7.41622 6.47523 7.6239 6.37143 7.81601 6.4355C8.00813 6.49957 8.11193 6.70725 8.04786 6.89937L6.58119 11.2994C6.53132 11.4491 6.39119 11.5502 6.23333 11.5502V11.5502Z" fill="black"/>
    <path d="M9.16667 11.5502C9.00882 11.5502 8.86868 11.4491 8.81882 11.2994L7.35215 6.89937C7.28808 6.70725 7.39188 6.49957 7.58399 6.4355C7.77611 6.37143 7.98379 6.47523 8.04786 6.66734L9.51453 11.0673C9.55169 11.1792 9.5329 11.3021 9.46401 11.3977C9.39513 11.4933 9.28452 11.55 9.16667 11.5502V11.5502Z" fill="black"/>
    <path d="M8.55434 9.71673H6.84567C6.64317 9.71673 6.479 9.55257 6.479 9.35007C6.479 9.14756 6.64317 8.9834 6.84567 8.9834H8.55434C8.75684 8.9834 8.921 9.14756 8.921 9.35007C8.921 9.55257 8.75684 9.71673 8.55434 9.71673Z" fill="black"/>
    <path d="M10.2667 11.55C10.0642 11.55 9.9 11.3859 9.9 11.1834V6.78335C9.9 6.58085 10.0642 6.41669 10.2667 6.41669C10.4692 6.41669 10.6333 6.58085 10.6333 6.78335V11.1834C10.6333 11.3859 10.4692 11.55 10.2667 11.55Z" fill="black"/>
    <path d="M11.7333 9.35002H10.2667C10.0642 9.35002 9.9 9.18586 9.9 8.98336V6.78335C9.9 6.58085 10.0642 6.41669 10.2667 6.41669H11.7333C12.5433 6.41669 13.2 7.07334 13.2 7.88336C13.2 8.69337 12.5433 9.35002 11.7333 9.35002ZM10.6333 8.61669H11.7333C12.1383 8.61669 12.4667 8.28836 12.4667 7.88336C12.4667 7.47835 12.1383 7.15002 11.7333 7.15002H10.6333V8.61669Z" fill="black"/>
    <path d="M14.6667 11.55C14.4642 11.55 14.3 11.3859 14.3 11.1834V6.78335C14.3 6.58085 14.4642 6.41669 14.6667 6.41669C14.8692 6.41669 15.0333 6.58085 15.0333 6.78335V11.1834C15.0333 11.3859 14.8692 11.55 14.6667 11.55Z" fill="black"/>
    <path d="M15.7667 7.15002H13.5667C13.3642 7.15002 13.2 6.98586 13.2 6.78335C13.2 6.58085 13.3642 6.41669 13.5667 6.41669H15.7667C15.9692 6.41669 16.1333 6.58085 16.1333 6.78335C16.1333 6.98586 15.9692 7.15002 15.7667 7.15002Z" fill="black"/>
    <path d="M15.7667 11.55H13.5667C13.3642 11.55 13.2 11.3858 13.2 11.1833C13.2 10.9808 13.3642 10.8167 13.5667 10.8167H15.7667C15.9692 10.8167 16.1333 10.9808 16.1333 11.1833C16.1333 11.3858 15.9692 11.55 15.7667 11.55Z" fill="black"/>
    <path d="M8.81701 21.0835C8.72455 21.0834 8.63308 21.0644 8.54828 21.0275L6.25427 20.0764C6.08518 20.0066 5.95117 19.8719 5.88225 19.7024C5.81415 19.5352 5.81712 19.3475 5.89046 19.1825L6.4368 17.8618C5.89916 17.4529 5.41945 16.973 5.01076 16.4352L3.67818 16.9855C3.51219 17.0549 3.32528 17.0546 3.15953 16.9847C2.99387 16.9163 2.86204 16.7851 2.79286 16.6198L1.84283 14.315C1.69891 13.9732 1.85773 13.5793 2.1985 13.433L3.49778 12.8974C3.61895 12.8475 3.75754 12.8661 3.86133 12.9461C3.96512 13.0261 4.01835 13.1554 4.00097 13.2853C3.98359 13.4151 3.89824 13.5259 3.77707 13.5758L2.541 14.0848L3.44905 16.2868L4.99682 15.6476C5.15546 15.5823 5.33819 15.6356 5.43682 15.776C5.88883 16.4216 6.4504 16.9831 7.0961 17.435C7.23704 17.5335 7.29051 17.7168 7.22465 17.8756L6.58585 19.42L8.78621 20.3322L9.42557 18.7869C9.49135 18.6279 9.65891 18.536 9.82839 18.566C10.6031 18.704 11.3962 18.7029 12.1705 18.5628C12.3401 18.5325 12.5079 18.6241 12.5743 18.783L13.217 20.3309L15.4143 19.4198L14.7752 17.8717C14.7094 17.7124 14.7635 17.5288 14.9051 17.4305C15.5511 16.9809 16.1124 16.4206 16.5632 15.7755C16.6618 15.635 16.8447 15.5819 17.0032 15.6477L18.5505 16.2879L19.4635 14.0863L18.5809 13.7189C18.4153 13.6569 18.3176 13.4856 18.3486 13.3115C18.3796 13.1374 18.5305 13.0103 18.7073 13.0093C18.7569 13.0093 18.8059 13.0188 18.8518 13.0374L19.7942 13.4298C19.9619 13.4983 20.0947 13.6317 20.1625 13.7997C20.2303 13.9658 20.2299 14.1521 20.1612 14.3179L19.2073 16.6184C19.1385 16.7866 19.0049 16.9201 18.8366 16.9887C18.6683 17.0573 18.4795 17.0554 18.3126 16.9833L16.989 16.4354C16.581 16.9728 16.1014 17.4519 15.5635 17.8593L16.1131 19.1908C16.1838 19.3537 16.1855 19.5383 16.1178 19.7025C16.0487 19.8724 15.9142 20.0074 15.7445 20.077L13.4469 21.0297C13.2805 21.0994 13.0931 21.0996 12.9266 21.0303C12.76 20.9611 12.628 20.828 12.5601 20.6609L12.0082 19.3313C11.3397 19.4246 10.6616 19.4255 9.99291 19.3342L9.44328 20.6625C9.3391 20.9167 9.0919 21.0829 8.8172 21.0836L8.81701 21.0835ZM8.76528 20.383V20.3834V20.383ZM8.83366 20.3521H8.83403H8.83366ZM15.4373 19.476L15.4384 19.4787L15.4373 19.476ZM6.56517 19.4698L6.56462 19.4709L6.56517 19.4698ZM15.4649 19.399L15.4645 19.3992L15.4649 19.399ZM6.53345 19.3985H6.53382H6.53345ZM18.5296 16.3387L18.5294 16.339L18.5296 16.3387ZM3.39702 16.3082H3.39651H3.39702ZM18.5978 16.3077L18.5981 16.3079L18.5978 16.3077ZM19.5139 14.1073H19.5144H19.5139ZM2.51995 14.0334V14.034V14.0334Z" fill="black"/>
    <path d="M11 17.05C8.72369 17.041 6.68563 15.6376 5.86524 13.5142C5.81711 13.3915 5.83851 13.2525 5.9213 13.1499C6.00408 13.0474 6.13552 12.9972 6.26558 13.0184C6.39563 13.0396 6.50431 13.129 6.55025 13.2525C7.25469 15.0977 9.02489 16.3167 11 16.3167C12.9751 16.3167 14.7453 15.0977 15.4498 13.2525C15.4957 13.129 15.6044 13.0396 15.7344 13.0184C15.8645 12.9972 15.9959 13.0474 16.0787 13.1499C16.1615 13.2525 16.1829 13.3915 16.1348 13.5142C15.3144 15.6376 13.2763 17.041 11 17.05Z" fill="black"/>
    <path d="M6.96667 5.31688C6.84882 5.31671 6.73822 5.25998 6.66933 5.16435C6.60044 5.06873 6.58165 4.94585 6.61881 4.83402C7.42643 2.4113 9.44776 2.38336 9.53334 2.38336C9.73584 2.38287 9.90041 2.54663 9.9009 2.74913C9.9014 2.95164 9.73764 3.1162 9.53514 3.1167C9.46404 3.11776 7.94868 3.16341 7.31453 5.06604C7.26466 5.21582 7.12453 5.31686 6.96667 5.31688Z" fill="black"/>
    </g>
    <defs>
    <clipPath id="clip0">
    <rect width="22" height="22" fill="white"/>
    </clipPath>
    </defs>
    </svg>
