<svg width="29" height="27" viewBox="0 0 29 27" fill="none" xmlns="http://www.w3.org/2000/svg">
    <path d="M6.34375 3.79688H21.2516C22.5203 3.79688 23.5172 4.725 23.5172 5.90625V13.3313L23.5625 21.5156C23.5625 22.6969 22.5656 23.625 21.2969 23.625H6.34375" fill="#E5E5E5" />
    <path d="M15.1344 19.3094C15.1344 19.3094 13.9562 15.4703 19.4844 12.8969C19.2578 13.9938 19.1672 14.3313 19.1672 14.3313L20.5719 12.3906C20.5719 12.3906 25.2844 11.9688 27.0969 9.8172C26.6437 11.4625 25.6922 12.8125 25.6922 12.8125L24.3781 13.6563L25.4203 13.5719C25.4203 13.5719 24.7406 15.2172 23.8797 15.9344C23.4266 16.0188 21.75 16.1453 21.75 16.1453L23.2 16.7359C23.2 16.7359 22.2031 17.8328 21.3422 18.3813C20.3906 18.6344 18.6234 17.875 18.6234 17.875C18.6234 17.875 19.0312 18.55 20.0281 18.8453C18.8953 19.8156 16.3125 19.5203 15.1344 19.3094Z" fill="#FFD766" />
    <path d="M15.1494 19.7583C15.1494 19.7583 13.8911 15.4072 19.7954 12.4905C19.5535 13.7336 19.4567 14.1162 19.4567 14.1162L20.9569 11.9167C20.9569 11.9167 25.9901 11.4385 27.9259 9C27.442 10.8648 26.4257 12.3948 26.4257 12.3948L25.0222 13.3511L26.1353 13.2555C26.1353 13.2555 25.4094 15.1203 24.4898 15.9331C24.0059 16.0288 22.2152 16.1722 22.2152 16.1722L23.7639 16.8416C23.7639 16.8416 22.6992 18.0848 21.7797 18.7064C20.7633 18.9933 18.8759 18.1326 18.8759 18.1326C18.8759 18.1326 19.3115 18.8976 20.3762 19.2323C19.1663 20.3321 16.4077 19.9974 15.1494 19.7583Z" stroke="#2C3E50" stroke-miterlimit="10" stroke-linecap="round" stroke-linejoin="round" />
    <path d="M13.1406 22.0938C13.1406 22.0938 15.1344 17.4531 22.3391 13.7406" stroke="#2C3E50" stroke-miterlimit="10" stroke-linecap="round" stroke-linejoin="round" />
    <path d="M6.79688 21.5156C6.79688 22.6969 5.8 23.625 4.53125 23.625H4.62187C3.30781 23.625 2.26562 22.7812 2.26562 21.5156H5.4375" fill="#B7B7B7" />
    <path d="M6.79688 5.90625C6.79688 4.725 5.8 3.79688 4.53125 3.79688H4.62187C3.30781 3.79688 2.26562 4.64062 2.26562 5.90625H5.4375" fill="#B7B7B7" />
    <path d="M23.5625 17.5078V21.5156C23.5625 22.6969 22.5656 23.625 21.2969 23.625H4.62187C3.30781 23.625 2.26562 22.7812 2.26562 21.5156H5.4375" stroke="#2C3E50" stroke-width="2" stroke-miterlimit="10" stroke-linecap="round" stroke-linejoin="round" />
    <path d="M4.53125 3.79688H21.2516C22.5203 3.79688 23.5172 4.725 23.5172 5.90625V10" stroke="#2C3E50" stroke-width="2" stroke-miterlimit="10" stroke-linecap="round" stroke-linejoin="round" />
    <path d="M4.66719 23.625C6.97813 23.625 6.79688 21.3047 6.79688 21.3047V5.90625C6.79688 4.725 5.8 3.79688 4.53125 3.79688C3.2625 3.79688 2.26562 4.725 2.26562 5.90625H5.4375" stroke="#2C3E50" stroke-width="2" stroke-miterlimit="10" stroke-linecap="round" stroke-linejoin="round" />
    <path d="M11.3281 7.17188H19.4844" stroke="#2C3E50" stroke-width="2" stroke-miterlimit="10" stroke-linecap="round" stroke-linejoin="round" />
    <path d="M11.3281 10.2812H19.4844" stroke="#2C3E50" stroke-miterlimit="10" stroke-linecap="round" stroke-linejoin="round" />
    <path d="M11.3281 12.3906H17.2188" stroke="#2C3E50" stroke-miterlimit="10" stroke-linecap="round" stroke-linejoin="round" />
</svg>
