<svg width="23" height="23" viewBox="0 0 23 23" fill="none" xmlns="http://www.w3.org/2000/svg">
    <rect x="0.5" y="0.5" width="22" height="22" rx="5.5" fill="#563D7C" stroke="white" />
    <path d="M7.07692 17.2237V5.30768H11.7427C13.7822 5.30768 15.1626 6.49676 15.1626 8.28039C15.1626 9.52059 14.2543 10.6751 13.1065 10.8814V10.9476C14.7252 11.1539 15.7654 12.2937 15.7654 13.8789C15.7654 15.9764 14.2622 17.2237 11.7273 17.2237H7.07692ZM8.56328 10.444H10.9414C12.7003 10.444 13.6582 9.74194 13.6582 8.45214C13.6582 7.27132 12.8491 6.6189 11.4033 6.6189H8.56328V10.444ZM11.5029 15.9106C13.2948 15.9106 14.2362 15.1838 14.2362 13.806C14.2362 12.4283 13.2617 11.7251 11.3627 11.7251H8.56328V15.9117L11.5029 15.9106Z" fill="white" />
</svg>
