<svg width="20" height="27" viewBox="0 0 20 27" fill="none" xmlns="http://www.w3.org/2000/svg">
    <path d="M13.133 9.50406L10.3606 11.9548L7.78802 7.02526L9.11921 4.19038C9.45617 3.62206 10.0059 3.62097 10.343 4.19038L13.133 9.50406Z" fill="#FFA000" />
    <path d="M10.3608 11.9547L0.000442505 21.1109L7.78813 7.02518L10.3608 11.9547Z" fill="#F57F17" />
    <path d="M16.1655 5.75787C16.6607 5.30561 17.1727 5.45986 17.3031 6.10067L20 20.9879L11.0605 26.0778C10.7476 26.2419 9.91911 26.3129 9.91911 26.3129C9.91911 26.3129 9.163 26.2272 8.8748 26.0752L0 21.11L16.1655 5.75787Z" fill="#FFCA28" />
    <path d="M7.78826 7.02524L0.000579834 21.1109L3.46933 0.524325C3.59706 -0.116969 3.98133 -0.178741 4.32415 0.387322L7.78826 7.02524Z" fill="#FFA000" />
</svg>
