<svg width="16" height="37" viewBox="0 0 16 37" fill="none" xmlns="http://www.w3.org/2000/svg">
    <g opacity="0.8">
        <path opacity="0.8" d="M7.88881 0.488159L8.83942 2.27349C9.05313 2.60295 9.28464 2.89458 9.55732 3.16616C10.3532 3.96198 11.1089 4.79566 11.7878 5.68832C13.3985 7.80311 14.4848 10.1516 15.2605 12.6916C15.7259 14.2432 15.9784 15.8349 15.9974 17.4443C16.0753 22.2561 14.4258 26.3877 11.0999 29.8215C10.5568 30.3646 9.97582 30.8676 9.35251 31.3152C9.02305 31.3152 8.86713 31.0625 8.73138 30.8298C8.4787 30.4036 8.32396 29.917 8.24619 29.433C8.12925 28.8509 8.05247 28.2687 8.09027 27.6676V27.3961C8.06355 27.3381 7.77305 0.625069 7.88881 0.488159Z" fill="#599636" />
        <path opacity="0.8" d="M7.88826 0.429159C7.84929 0.351249 7.81035 0.410242 7.77139 0.448075C7.79031 0.837652 7.65453 1.18492 7.44193 1.5166C7.20818 1.84606 6.89876 2.09873 6.58822 2.37031C4.863 3.86403 3.50508 5.66828 2.41762 7.68623C0.97066 10.4021 0.224927 13.3127 0.0134383 16.3769C-0.0833821 17.4822 0.362945 21.3823 0.711324 22.5076C1.66188 25.4949 3.36928 27.9983 5.58091 30.1709C6.12408 30.6941 6.70508 31.1793 7.30613 31.6457C7.48089 31.6457 7.49981 31.49 7.53988 31.3742C7.6165 31.1265 7.67489 30.8734 7.71462 30.6173L8.10412 27.7078L7.88826 0.429159Z" fill="#6CAC48" />
        <path opacity="0.8" d="M8.83942 32.4972C8.8784 32.052 9.09211 31.6825 9.32461 31.3141C9.09092 31.2171 8.91719 31.0246 8.78145 30.8099C8.6647 30.6162 8.56774 30.3835 8.49215 30.1698C8.22047 29.3551 8.16269 28.5003 8.08473 27.6676V27.1635C7.98789 27.2414 7.96784 27.9003 7.96784 27.9983C7.91121 28.8782 7.79444 29.7532 7.61836 30.6172C7.56048 30.9668 7.52152 31.3151 7.3067 31.6257C7.3067 31.6647 7.3067 31.7035 7.32562 31.7615C7.67513 32.7898 7.77084 33.8374 7.82983 34.9047V35.2943C7.82983 35.7595 7.81091 35.6616 8.19712 35.8173C8.35305 35.8753 8.52658 35.8953 8.68251 36.011C8.79925 36.011 8.81825 35.9143 8.81825 35.8363L8.76027 35.1964V33.411C8.74148 33.0993 8.79926 32.7898 8.83824 32.4984L8.83942 32.4972Z" fill="#C2BFBF" />
    </g>
</svg>
