<svg width="32" height="28" viewBox="0 0 32 28" fill="none" xmlns="http://www.w3.org/2000/svg">
    <path d="M10.0377 19.1579C10.0377 19.6523 9.91584 20.116 9.69084 20.5273C9.15647 21.5335 8.04084 22.2204 6.75647 22.2204C4.9424 22.2204 3.47522 20.851 3.47522 19.1579C3.47522 17.4648 4.9424 16.0954 6.75647 16.0954C7.4174 16.0954 8.02678 16.2748 8.53772 16.5854C9.4424 17.1323 10.0377 18.0773 10.0377 19.1579Z" fill="#F6DB40" />
    <path d="M19.558 21.6344C20.0549 22.1681 20.3502 22.8637 20.3502 23.625C20.3502 25.3181 18.883 26.6875 17.069 26.6875C15.2549 26.6875 13.7877 25.3181 13.7877 23.625C13.7877 23.2706 13.8533 22.9338 13.9705 22.6188C14.1955 22.0019 14.6268 21.4812 15.1893 21.1137C15.719 20.7637 16.3658 20.5625 17.069 20.5625C18.0674 20.5625 18.9627 20.9781 19.558 21.6344V21.6344Z" fill="#71D2DF" />
    <path d="M27.3815 10.9375C29.1955 10.9375 30.6627 12.3069 30.6627 14C30.6627 15.6931 29.1955 17.0625 27.3815 17.0625C26.5002 17.0625 25.7033 16.7431 25.1174 16.2094C24.4893 15.6581 24.1002 14.8706 24.1002 14C24.1002 13.86 24.1096 13.7244 24.133 13.5887C24.2268 12.9062 24.5643 12.2981 25.0612 11.8344C25.6565 11.2787 26.4721 10.9375 27.3815 10.9375V10.9375Z" fill="#F6DB40" />
    <path d="M20.3174 13.0988C20.1065 14.595 18.733 15.75 17.069 15.75C15.2549 15.75 13.7877 14.3806 13.7877 12.6875C13.7877 12.1931 13.9096 11.7294 14.1346 11.3181C14.669 10.3119 15.7846 9.625 17.069 9.625C18.883 9.625 20.3502 10.9944 20.3502 12.6875C20.3502 12.8275 20.3408 12.9631 20.3174 13.0988Z" fill="#DB535B" />
    <path d="M17.069 1.3125C18.883 1.3125 20.3502 2.68188 20.3502 4.375C20.3502 5.22375 19.9846 5.985 19.3893 6.54062C18.794 7.09625 17.9783 7.4375 17.069 7.4375C16.408 7.4375 15.7987 7.25813 15.2877 6.9475C14.6924 6.58875 14.2283 6.055 13.9846 5.42063C13.858 5.09688 13.7877 4.7425 13.7877 4.375C13.7877 2.68188 15.2549 1.3125 17.069 1.3125V1.3125Z" fill="#8360F4" />
    <path d="M9.84084 6.82937C9.9674 7.15312 10.0377 7.5075 10.0377 7.875C10.0377 8.36937 9.91584 8.83312 9.69084 9.24437C9.40959 9.76937 8.97365 10.2069 8.43459 10.5044C7.94709 10.78 7.37053 10.9375 6.75647 10.9375C4.9424 10.9375 3.47522 9.56812 3.47522 7.875C3.47522 6.18188 4.9424 4.8125 6.75647 4.8125C8.17678 4.8125 9.38147 5.6525 9.84084 6.82937V6.82937Z" fill="#6599ED" />
    <path d="M8.38022 16.1C7.88803 15.8782 7.33865 15.75 6.75647 15.75C4.68881 15.75 3.00647 17.3202 3.00647 19.25C3.00647 21.1798 4.68881 22.75 6.75647 22.75C8.05397 22.75 9.19912 22.1314 9.87272 21.1938L13.4151 22.8489C13.3541 23.0987 13.319 23.3581 13.319 23.625C13.319 25.5548 15.0013 27.125 17.069 27.125C19.1366 27.125 20.819 25.5548 20.819 23.625C20.819 22.8996 20.5813 22.2254 20.1744 21.6659L25.1521 16.8083C25.7765 17.2406 26.5462 17.5 27.3815 17.5C29.4491 17.5 31.1315 15.9298 31.1315 14C31.1315 12.0702 29.4491 10.5 27.3815 10.5C26.5162 10.5 25.7212 10.7774 25.0855 11.2385L20.0277 6.51787C20.5218 5.92462 20.819 5.18262 20.819 4.375C20.819 2.44519 19.1366 0.875 17.069 0.875C15.0013 0.875 13.319 2.44519 13.319 4.375C13.319 4.641 13.3537 4.89956 13.4146 5.14894L10.0902 6.27944C9.46725 5.15025 8.20818 4.375 6.75647 4.375C4.68881 4.375 3.00647 5.94519 3.00647 7.875C3.00647 9.80481 4.68881 11.375 6.75647 11.375C7.2899 11.375 7.79662 11.2691 8.25647 11.0806L9.98193 13.7909L8.38022 16.1ZM6.75647 21.875C5.20537 21.875 3.94397 20.6977 3.94397 19.25C3.94397 17.8023 5.20537 16.625 6.75647 16.625C8.30756 16.625 9.56897 17.8023 9.56897 19.25C9.56897 20.6977 8.30756 21.875 6.75647 21.875ZM10.2904 20.4098C10.4277 20.0463 10.5065 19.6569 10.5065 19.25C10.5065 18.1768 9.98522 17.2161 9.16818 16.5738L10.5163 14.6304L14.5808 21.014C14.2387 21.2984 13.9522 21.6387 13.7399 22.0216L10.2904 20.4098ZM17.069 7.875C17.9343 7.875 18.7293 7.59763 19.3649 7.1365L24.4232 11.8576C24.1199 12.2216 23.893 12.642 23.7622 13.0996L20.8176 12.7216C20.8171 12.7102 20.819 12.6989 20.819 12.6875C20.819 10.7577 19.1366 9.1875 17.069 9.1875C15.7715 9.1875 14.6258 9.80612 13.9527 10.7437L13.3935 10.4829L15.4457 7.525C15.9374 7.74681 16.4868 7.875 17.069 7.875ZM17.5377 20.1552V16.1569C19.0612 15.9784 20.3005 14.945 20.6887 13.5879L23.6333 13.9659C23.6333 13.9773 23.6315 13.9886 23.6315 14C23.6315 14.8356 23.9474 15.6026 24.4729 16.205L19.551 21.0083C18.9993 20.552 18.3051 20.2453 17.5377 20.1552V20.1552ZM17.069 10.0625C18.6201 10.0625 19.8815 11.2398 19.8815 12.6875C19.8815 14.1352 18.6201 15.3125 17.069 15.3125C15.5179 15.3125 14.2565 14.1352 14.2565 12.6875C14.2565 11.2398 15.5179 10.0625 17.069 10.0625V10.0625ZM13.5351 11.5277C13.3977 11.8913 13.319 12.2806 13.319 12.6875C13.319 14.469 14.7533 15.9407 16.6002 16.1573V20.1556C16.1558 20.2077 15.7363 20.3319 15.3543 20.5161L11.0849 13.8106L12.8807 11.2223L13.5351 11.5277ZM17.069 26.25C15.5179 26.25 14.2565 25.0727 14.2565 23.625C14.2565 22.1773 15.5179 21 17.069 21C18.6201 21 19.8815 22.1773 19.8815 23.625C19.8815 25.0727 18.6201 26.25 17.069 26.25ZM27.3815 11.375C28.9326 11.375 30.194 12.5523 30.194 14C30.194 15.4477 28.9326 16.625 27.3815 16.625C25.8304 16.625 24.569 15.4477 24.569 14C24.569 12.5523 25.8304 11.375 27.3815 11.375ZM17.069 1.75C18.6201 1.75 19.8815 2.92731 19.8815 4.375C19.8815 5.82269 18.6201 7 17.069 7C15.5179 7 14.2565 5.82269 14.2565 4.375C14.2565 2.92731 15.5179 1.75 17.069 1.75ZM13.7357 5.97056C13.9649 6.38575 14.2785 6.75281 14.6577 7.05119L12.5502 10.0892L10.2908 9.03481C10.4277 8.67125 10.5065 8.28187 10.5065 7.875C10.5065 7.609 10.4718 7.35044 10.4108 7.10106L13.7357 5.97056ZM3.94397 7.875C3.94397 6.42731 5.20537 5.25 6.75647 5.25C8.30756 5.25 9.56897 6.42731 9.56897 7.875C9.56897 9.32269 8.30756 10.5 6.75647 10.5C5.20537 10.5 3.94397 9.32269 3.94397 7.875ZM9.06037 10.6308C9.37443 10.4016 9.65006 10.1286 9.87272 9.81881L12.0369 10.8286L10.5505 12.971L9.06037 10.6308Z" fill="#1A1A1A" />
</svg>
