<svg width="37" height="32" viewBox="0 0 37 32" fill="none" xmlns="http://www.w3.org/2000/svg">
    <path d="M18.7929 29.0468C18.6734 29.047 18.5561 29.0121 18.4531 28.9461L17.3671 28.2471C17.2046 28.1484 17.284 28.1121 17.3376 28.0919C17.5099 28.0331 17.6749 27.9514 17.8288 27.8482C17.8409 27.841 17.8546 27.837 17.8685 27.837C17.8824 27.837 17.8961 27.841 17.9082 27.8482L18.743 28.3881C18.7584 28.397 18.7755 28.4017 18.7929 28.4017C18.8103 28.4017 18.8274 28.397 18.8428 28.3881L22.0951 26.3414C22.1097 26.3309 22.122 26.3166 22.1302 26.2998C22.1386 26.2828 22.1429 26.264 22.1431 26.2447V22.1615C22.1433 22.1418 22.1388 22.1223 22.13 22.1051C22.1214 22.0878 22.1087 22.0733 22.0933 22.0628L18.8446 20.0181C18.8292 20.0083 18.8117 20.0029 18.7938 20.0029C18.7759 20.0029 18.7584 20.0083 18.743 20.0181L15.4907 22.0587C15.475 22.069 15.4621 22.0836 15.4531 22.1008C15.444 22.118 15.4392 22.1377 15.439 22.1574V26.2487C15.4391 26.2682 15.4439 26.2872 15.453 26.304C15.4621 26.3204 15.4751 26.3342 15.4907 26.3434L16.3809 26.9055C16.8647 27.1673 17.1602 26.8571 17.1602 26.5469V22.51C17.1602 22.4827 17.1702 22.4565 17.1878 22.4374C17.2055 22.4182 17.2294 22.4072 17.2544 22.4072H17.6681C17.693 22.4079 17.7167 22.4189 17.7342 22.4381C17.7518 22.4571 17.7619 22.4829 17.7623 22.51V26.5509C17.7623 27.2539 17.4096 27.6568 16.7983 27.6568C16.5379 27.6597 16.282 27.583 16.0595 27.4352L15.2007 26.8934C15.0971 26.8276 15.0112 26.7331 14.9516 26.6196C14.892 26.5061 14.8607 26.3777 14.8609 26.2467V22.1615C14.8605 22.0308 14.8917 21.9021 14.9514 21.7886C15.011 21.6749 15.097 21.5806 15.2007 21.5148L18.4457 19.4662C18.5505 19.4039 18.6679 19.371 18.7874 19.371C18.9067 19.371 19.0241 19.4039 19.129 19.4662L22.3795 21.5148C22.4832 21.5809 22.5691 21.6751 22.6287 21.7888C22.6882 21.9023 22.7196 22.0308 22.7194 22.1615V26.2528C22.7196 26.3837 22.6882 26.5122 22.6287 26.6257C22.5691 26.7391 22.4832 26.8336 22.3795 26.8994L19.129 28.9461C19.0268 29.0108 18.911 29.0454 18.7929 29.0468Z" fill="#679E63" />
    <path d="M19.7978 26.2266C18.3757 26.2266 18.0765 25.5155 18.0765 24.9172C18.0765 24.8901 18.0864 24.864 18.1041 24.8447C18.1217 24.8255 18.1457 24.8145 18.1707 24.8145H18.5918C18.6141 24.8147 18.6356 24.8237 18.6525 24.8396C18.6694 24.8552 18.6806 24.8772 18.6841 24.9011C18.7488 25.3685 18.9371 25.6041 19.7923 25.6041C20.4774 25.6041 20.7693 25.4349 20.7693 25.0381C20.7693 24.8105 20.6861 24.6352 19.6223 24.5264C18.7321 24.4317 18.1818 24.2162 18.1818 23.4406C18.1818 22.7255 18.7358 22.2985 19.6593 22.2985C20.7009 22.2985 21.2162 22.7013 21.2827 23.5394C21.2837 23.5537 21.2819 23.5678 21.2778 23.5812C21.2735 23.5946 21.2667 23.6069 21.2579 23.6172C21.249 23.6278 21.2384 23.636 21.2265 23.6416C21.2144 23.6472 21.2014 23.6504 21.1885 23.6501H20.7729C20.7516 23.6499 20.7313 23.6416 20.7149 23.6271C20.6985 23.6125 20.6872 23.5924 20.6824 23.5696C20.5809 23.0801 20.3352 22.9229 19.6667 22.9229C18.9279 22.9229 18.8319 23.207 18.8319 23.4185C18.8319 23.6763 18.9353 23.7529 19.94 23.8979C20.9447 24.043 21.4175 24.2464 21.4175 25.0119C21.4175 25.7774 20.8284 26.2266 19.7978 26.2266Z" fill="#679E63" />
    <path d="M24.485 21.9358C24.4846 22.0708 24.4476 22.2028 24.3787 22.3148C24.3095 22.4267 24.2116 22.514 24.0971 22.5654C23.9828 22.6167 23.8568 22.6301 23.7356 22.6035C23.6145 22.5769 23.5029 22.5115 23.4154 22.4162C23.3282 22.3204 23.2687 22.1988 23.2447 22.0663C23.2207 21.934 23.2332 21.7968 23.2806 21.6722C23.3282 21.5475 23.4083 21.4409 23.5113 21.366C23.6143 21.291 23.7352 21.2509 23.8589 21.2509C24.0249 21.2523 24.1839 21.3248 24.3013 21.453C24.4185 21.5811 24.4846 21.7547 24.485 21.9358ZM23.3325 21.9358C23.3321 22.0497 23.3629 22.1608 23.4206 22.2554C23.478 22.3503 23.5603 22.4242 23.6568 22.4679C23.753 22.5115 23.8589 22.5234 23.9611 22.5012C24.0635 22.479 24.1575 22.4244 24.2311 22.3439C24.3048 22.2635 24.3551 22.161 24.3754 22.0495C24.3955 21.9378 24.3848 21.8223 24.3448 21.7174C24.3048 21.6124 24.2371 21.5226 24.1503 21.4597C24.0635 21.3968 23.9613 21.3633 23.857 21.3637C23.7183 21.3644 23.5856 21.4246 23.4873 21.5311C23.3892 21.6379 23.3336 21.7827 23.3325 21.9338V21.9358ZM23.6225 21.5531H23.8644C23.9475 21.5531 24.1101 21.5531 24.1101 21.7545C24.1134 21.7982 24.1017 21.8418 24.077 21.8765C24.0524 21.9112 24.0169 21.9345 23.9771 21.9419C24.075 21.9419 24.0805 22.0184 24.0934 22.1171C24.0973 22.1858 24.1097 22.2537 24.1304 22.3186H23.9863C23.9863 22.2823 23.9605 22.0869 23.9605 22.0768C23.9601 22.0672 23.9578 22.0576 23.9537 22.0489C23.9496 22.0401 23.9441 22.0325 23.9371 22.0262C23.9301 22.0202 23.9219 22.0157 23.9133 22.0135C23.9047 22.011 23.8954 22.0108 23.8866 22.0124H23.7647V22.3186H23.6169L23.6225 21.5531ZM23.7555 21.8895H23.8644C23.8782 21.8917 23.8921 21.8904 23.9055 21.8859C23.9186 21.8814 23.9307 21.8738 23.9412 21.8637C23.9512 21.8535 23.9592 21.8409 23.9646 21.8268C23.9699 21.8129 23.9724 21.7979 23.9716 21.7827C23.9716 21.678 23.9051 21.678 23.8681 21.678H23.7555V21.8895Z" fill="#679E63" />
    <path fill-rule="evenodd" clip-rule="evenodd" d="M8.72568 13.0361C8.72746 12.9549 8.7092 12.8747 8.6728 12.8038C8.63641 12.7329 8.58322 12.674 8.51883 12.6332L5.07069 10.4778C5.01411 10.4426 4.95097 10.4219 4.886 10.4174H4.84906C4.78417 10.4225 4.72111 10.4431 4.66437 10.4778L1.20885 12.6413C1.14447 12.6823 1.09124 12.7412 1.05457 12.812C1.0179 12.8828 0.999121 12.9629 1.00015 13.0442V18.8699C0.998711 18.9109 1.0078 18.9516 1.02641 18.987C1.04501 19.0226 1.07238 19.0519 1.10542 19.0714C1.13653 19.0922 1.17232 19.1031 1.20885 19.1031C1.24535 19.1031 1.28114 19.0922 1.31227 19.0714L3.36047 17.7922C3.42486 17.7515 3.47805 17.6926 3.51444 17.6216C3.55084 17.5507 3.56909 17.4705 3.56732 17.3893V14.6638C3.56611 14.5824 3.58481 14.5022 3.6215 14.4314C3.65817 14.3606 3.7115 14.3017 3.77602 14.2609L4.64775 13.713C4.71139 13.6736 4.78325 13.6527 4.85645 13.6525C4.92909 13.6522 5.00051 13.6731 5.0633 13.713L5.93503 14.2609C5.99953 14.3017 6.05286 14.3606 6.08955 14.4314C6.12624 14.5022 6.14494 14.5824 6.14373 14.6638V17.3853C6.14231 17.4667 6.16095 17.5469 6.19764 17.6178C6.23435 17.6886 6.28779 17.7474 6.35243 17.7882L8.40063 19.0673C8.43208 19.0881 8.46816 19.0991 8.50497 19.0991C8.54177 19.0991 8.57786 19.0881 8.60932 19.0673C8.64158 19.047 8.66824 19.0176 8.68646 18.982C8.70464 18.9467 8.71373 18.9066 8.71275 18.8659L8.72568 13.0361Z" fill="#333333" />
    <path fill-rule="evenodd" clip-rule="evenodd" d="M25.3107 5.02881C25.2789 5.00938 25.2428 4.99946 25.2063 5.00002C25.1698 5.0006 25.1339 5.01164 25.1025 5.03205C25.0711 5.05244 25.045 5.08149 25.0271 5.11625C25.0095 5.15106 25.0003 5.19036 25.0005 5.23025V10.9955C25.0005 11.0233 24.9935 11.0504 24.9806 11.0744C24.9678 11.0983 24.9496 11.1182 24.9274 11.132C24.9055 11.1458 24.8804 11.1532 24.8552 11.1533C24.8297 11.1533 24.8047 11.1462 24.7825 11.1325L23.92 10.5906C23.8566 10.5511 23.7846 10.5303 23.7113 10.5303C23.6383 10.5303 23.5663 10.5511 23.5026 10.5906L20.0545 12.7622C19.9901 12.803 19.9369 12.8619 19.9006 12.9328C19.8643 13.0036 19.8458 13.0839 19.8477 13.1651V17.5061C19.8458 17.5874 19.8643 17.6677 19.9006 17.7387C19.9369 17.8092 19.9901 17.8683 20.0545 17.909L23.5026 20.0826C23.5663 20.1222 23.6383 20.143 23.7113 20.143C23.7846 20.143 23.8566 20.1222 23.92 20.0826L27.3682 17.909C27.433 17.8687 27.4868 17.8099 27.5235 17.7389C27.5603 17.6682 27.5787 17.5878 27.5769 17.5061V6.67258C27.5775 6.59068 27.5578 6.51015 27.52 6.43933C27.4825 6.36847 27.4281 6.30992 27.3626 6.2697L25.3107 5.02881ZM24.9912 16.0699C24.9912 16.0901 24.9863 16.1099 24.9769 16.1272C24.9674 16.1446 24.9541 16.1589 24.9377 16.1686L23.7557 16.9119C23.7397 16.9218 23.7216 16.927 23.7031 16.927C23.6847 16.927 23.6666 16.9218 23.6504 16.9119L22.4665 16.1686C22.4509 16.1583 22.438 16.1438 22.429 16.1266C22.42 16.1093 22.415 16.0898 22.4148 16.0699V14.5792C22.415 14.5593 22.42 14.5398 22.429 14.5225C22.438 14.5053 22.4509 14.4908 22.4665 14.4805L23.6504 13.7352C23.6666 13.7253 23.6847 13.7201 23.7031 13.7201C23.7216 13.7201 23.7397 13.7253 23.7557 13.7352L24.9395 14.4805C24.9553 14.4908 24.9683 14.5053 24.9773 14.5225C24.9863 14.5398 24.9912 14.5593 24.9912 14.5792V16.0699Z" fill="#333333" />
    <path fill-rule="evenodd" clip-rule="evenodd" d="M36.793 14.5389C36.8575 14.4981 36.9106 14.4392 36.947 14.3683C36.9833 14.2975 37.0015 14.2172 36.9999 14.136V13.0946C37.0013 13.0134 36.9831 12.9332 36.9465 12.8624C36.9102 12.7916 36.8573 12.7326 36.793 12.6917L33.3671 10.5322C33.3035 10.4926 33.2314 10.4718 33.1584 10.4718C33.0849 10.4718 33.0131 10.4926 32.9497 10.5322L29.5015 12.7018C29.4373 12.743 29.3846 12.802 29.3482 12.8728C29.3117 12.9435 29.2932 13.0235 29.2947 13.1046V17.4457C29.2928 17.5274 29.3115 17.608 29.3486 17.6789C29.3858 17.7499 29.44 17.8085 29.5052 17.8486L32.9294 19.9778C32.9915 20.0159 33.0619 20.036 33.1333 20.036C33.2047 20.036 33.2749 20.0159 33.3375 19.9778L35.4097 18.7228C35.4432 18.7036 35.4715 18.6747 35.491 18.6391C35.5107 18.6036 35.5212 18.5628 35.5212 18.5214C35.5212 18.48 35.5107 18.4393 35.491 18.4037C35.4715 18.3683 35.4432 18.3392 35.4097 18.32L31.9431 16.1384C31.9105 16.1182 31.8838 16.0888 31.8655 16.0533C31.8473 16.0178 31.8383 15.9776 31.8397 15.9369V14.5812C31.8383 14.5405 31.8473 14.5003 31.8655 14.4648C31.8838 14.4293 31.9105 14.3999 31.9431 14.3798L33.0235 13.7009C33.0549 13.6811 33.0904 13.6707 33.127 13.6707C33.1631 13.6707 33.199 13.6811 33.2304 13.7009L34.3108 14.3798C34.343 14.3999 34.3699 14.4293 34.3882 14.4648C34.4062 14.5003 34.4153 14.5405 34.4143 14.5812V15.6529C34.414 15.6931 34.4235 15.7327 34.4415 15.7677C34.4598 15.8027 34.4863 15.8319 34.5179 15.8522C34.5497 15.8727 34.586 15.8836 34.6227 15.8839C34.6597 15.8843 34.696 15.8741 34.7282 15.8543L36.793 14.5389Z" fill="#333333" />
    <path fill-rule="evenodd" clip-rule="evenodd" d="M33.1062 14.3355C33.1186 14.3286 33.1321 14.325 33.1461 14.325C33.1598 14.325 33.1733 14.3286 33.1857 14.3355L33.8487 14.7525C33.8608 14.7605 33.8704 14.7718 33.8774 14.7852C33.8842 14.7986 33.8877 14.8137 33.8875 14.8291V15.661C33.8877 15.6763 33.8842 15.6915 33.8774 15.7049C33.8704 15.7183 33.8608 15.7296 33.8487 15.7376L33.1857 16.1526C33.1738 16.1603 33.16 16.1645 33.1461 16.1645C33.1319 16.1645 33.1184 16.1603 33.1062 16.1526L32.4451 15.7376C32.4332 15.7296 32.4233 15.7183 32.4165 15.7049C32.4096 15.6915 32.4061 15.6763 32.4063 15.661V14.8291C32.4061 14.8137 32.4096 14.7986 32.4165 14.7852C32.4233 14.7718 32.4332 14.7605 32.4451 14.7525L33.1062 14.3355Z" fill="#679E63" />
    <path fill-rule="evenodd" clip-rule="evenodd" d="M14.4936 10.5543C14.4307 10.5147 14.3594 10.4939 14.2867 10.4939C14.2141 10.4939 14.1428 10.5147 14.0799 10.5543L10.6521 12.7118C10.5872 12.7521 10.5335 12.8109 10.4968 12.8818C10.46 12.9528 10.4416 13.0332 10.4434 13.1147V17.4256C10.4435 17.505 10.4629 17.5829 10.4996 17.6516C10.5362 17.7201 10.5888 17.777 10.6521 17.8164L14.0799 19.9758C14.1428 20.0154 14.2141 20.0363 14.2867 20.0363C14.3594 20.0363 14.4307 20.0154 14.4936 19.9758L17.9214 17.8164C17.9844 17.777 18.0368 17.7201 18.0731 17.6514C18.1094 17.5827 18.1284 17.5048 18.1283 17.4256V13.1046C18.1304 13.0233 18.1124 12.9429 18.0759 12.8719C18.0395 12.801 17.9861 12.7421 17.9214 12.7017L14.4936 10.5543Z" fill="url(#paint0_linear)" />
    <path d="M17.9286 12.7118L14.4897 10.5544C14.4564 10.5331 14.4202 10.5175 14.3826 10.5081L10.5226 17.7116C10.5555 17.7523 10.5942 17.787 10.6371 17.8143L14.0816 19.9738C14.1294 20.0042 14.1823 20.0237 14.2372 20.0313C14.2921 20.0389 14.3478 20.0345 14.4011 20.0181L18.021 12.7924C17.9932 12.7616 17.9622 12.7346 17.9286 12.7118Z" fill="url(#paint1_linear)" />
    <path d="M13.9652 9.76071L13.919 9.79093H13.9818L13.9652 9.76071Z" fill="url(#paint2_linear)" />
    <path d="M17.9307 17.8143C18.0307 17.7514 18.1038 17.6478 18.1339 17.5263L14.3644 10.504C14.2647 10.481 14.1608 10.4989 14.0726 10.5543L10.6577 12.6997L14.3515 20.0302C14.4048 20.0221 14.4562 20.0029 14.5029 19.9738L17.9307 17.8143Z" fill="url(#paint3_linear)" />
    <path d="M18.2502 17.7459L18.228 17.7036V17.76L18.2502 17.7459Z" fill="url(#paint4_linear)" />
    <path d="M17.9304 17.8143L14.4989 19.9738C14.4522 20.0031 14.4008 20.0221 14.3474 20.0302L14.4158 20.1672L18.2277 17.7498V17.6934L18.1336 17.5162C18.1198 17.5782 18.0947 17.6366 18.0598 17.6878C18.0249 17.7389 17.9809 17.7821 17.9304 17.8143Z" fill="url(#paint5_linear)" />
    <path d="M17.9304 17.8143L14.4989 19.9738C14.4522 20.0031 14.4008 20.0221 14.3474 20.0302L14.4158 20.1672L18.2277 17.7498V17.6934L18.1336 17.5162C18.1198 17.5782 18.0947 17.6366 18.0598 17.6878C18.0249 17.7389 17.9809 17.7821 17.9304 17.8143Z" fill="url(#paint6_linear)" />
    <defs>
        <linearGradient id="paint0_linear" x1="15.6811" y1="12.1618" x2="12.1271" y2="18.809" gradientUnits="userSpaceOnUse">
            <stop stop-color="#3F873F" />
            <stop offset="0.33" stop-color="#3F8B3D" />
            <stop offset="0.64" stop-color="#3E9637" />
            <stop offset="0.93" stop-color="#3DA92E" />
            <stop offset="1" stop-color="#3DAE2B" />
        </linearGradient>
        <linearGradient id="paint1_linear" x1="13.7639" y1="15.7697" x2="22.9739" y2="9.52905" gradientUnits="userSpaceOnUse">
            <stop offset="0.14" stop-color="#3F873F" />
            <stop offset="0.4" stop-color="#529F44" />
            <stop offset="0.71" stop-color="#63B649" />
            <stop offset="0.91" stop-color="#6ABF4B" />
        </linearGradient>
        <linearGradient id="paint2_linear" x1="10.323" y1="9.77683" x2="18.2501" y2="9.77683" gradientUnits="userSpaceOnUse">
            <stop offset="0.09" stop-color="#6ABF4B" />
            <stop offset="0.29" stop-color="#63B649" />
            <stop offset="0.6" stop-color="#529F44" />
            <stop offset="0.86" stop-color="#3F873F" />
        </linearGradient>
        <linearGradient id="paint3_linear" x1="407.045" y1="880.748" x2="727.924" y2="880.748" gradientUnits="userSpaceOnUse">
            <stop offset="0.09" stop-color="#6ABF4B" />
            <stop offset="0.29" stop-color="#63B649" />
            <stop offset="0.6" stop-color="#529F44" />
            <stop offset="0.86" stop-color="#3F873F" />
        </linearGradient>
        <linearGradient id="paint4_linear" x1="19.403" y1="23.5427" x2="20.3544" y2="23.5427" gradientUnits="userSpaceOnUse">
            <stop offset="0.09" stop-color="#6ABF4B" />
            <stop offset="0.29" stop-color="#63B649" />
            <stop offset="0.6" stop-color="#529F44" />
            <stop offset="0.86" stop-color="#3F873F" />
        </linearGradient>
        <linearGradient id="paint5_linear" x1="220.081" y1="306.633" x2="386.625" y2="306.633" gradientUnits="userSpaceOnUse">
            <stop offset="0.09" stop-color="#6ABF4B" />
            <stop offset="0.29" stop-color="#63B649" />
            <stop offset="0.6" stop-color="#529F44" />
            <stop offset="0.86" stop-color="#3F873F" />
        </linearGradient>
        <linearGradient id="paint6_linear" x1="410.877" y1="215.944" x2="357.416" y2="375.613" gradientUnits="userSpaceOnUse">
            <stop stop-color="#3F873F" />
            <stop offset="0.33" stop-color="#3F8B3D" />
            <stop offset="0.64" stop-color="#3E9637" />
            <stop offset="0.93" stop-color="#3DA92E" />
            <stop offset="1" stop-color="#3DAE2B" />
        </linearGradient>
    </defs>
</svg>
