<svg width="23" height="23" viewBox="0 0 23 23" fill="none" xmlns="http://www.w3.org/2000/svg">
    <path d="M22.5813 8.73204C22.1905 7.14948 21.4414 6 19.8531 6H17.6274V8.34587C17.6274 10.2298 16.2102 11.9549 14.3861 11.9549H8.94242C7.4478 11.9549 6 13.0954 6 14.5949V19.8028C6 21.2861 7.39198 22.1487 8.83617 22.5818C10.5631 23.0924 12.1388 23.1845 14.206 22.5818C15.58 22.183 16.8531 21.3818 16.8531 19.8028V17.9099H11.4274V17.1339H19.8531C21.4396 17.1339 22.0302 15.9898 22.5813 14.326C23.1521 12.6135 23.1269 10.9299 22.5813 8.73204ZM14.7462 19.1081C14.9529 19.1049 15.1558 19.1632 15.3293 19.2761C15.5025 19.3888 15.6384 19.551 15.7196 19.7413C15.8009 19.9317 15.8235 20.1423 15.7849 20.3458C15.7462 20.5491 15.6482 20.7366 15.5029 20.8839C15.3575 21.0313 15.1718 21.1319 14.9693 21.1732C14.7666 21.2143 14.5566 21.1941 14.3655 21.1151C14.1744 21.0361 14.0111 20.9018 13.8965 20.7293C13.7816 20.5571 13.7208 20.3546 13.7216 20.1475C13.7206 20.0117 13.7464 19.8772 13.7974 19.7513C13.8483 19.6258 13.9237 19.5113 14.0189 19.4148C14.114 19.3182 14.2272 19.2414 14.3521 19.1889C14.4767 19.1361 14.6108 19.1089 14.7462 19.1081Z" fill="#FFD845" />
    <path d="M8.8454 11.0667H14.462C16.0283 11.0667 17 9.76678 17 8.24391V3.05503C17 1.57711 15.8518 0.467772 14.3227 0.221453C13.3767 0.068607 12.4186 -0.00538839 11.4596 0.000305126C10.5358 0.00128401 9.61368 0.0752394 8.70234 0.221453C6.31856 0.629588 5.81133 1.48002 5.81133 3.05503V5.13346H11.4094V5.90658H3.91434C2.27746 5.90658 0.844959 6.81816 0.397186 8.6287C-0.121189 10.7053 -0.143485 12.034 0.397186 14.2023C0.796651 15.8205 1.75351 17 3.39039 17H5.27623V14.4001C5.27623 12.6004 6.9354 11.0667 8.8454 11.0667ZM8.49053 3.74724C8.2773 3.75047 8.06788 3.69216 7.88902 3.57979C7.71016 3.46742 7.56992 3.30602 7.48615 3.11624C7.40242 2.92645 7.37896 2.71681 7.41881 2.51406C7.45865 2.31133 7.55993 2.12465 7.70983 1.97783C7.85971 1.831 8.05135 1.73069 8.26037 1.68968C8.46937 1.64867 8.68626 1.6688 8.88341 1.74749C9.08054 1.82621 9.249 1.95993 9.36733 2.13164C9.48564 2.30334 9.54844 2.50525 9.54774 2.71162C9.5492 2.98455 9.4387 3.24689 9.24049 3.44105C9.04229 3.63522 8.77257 3.74536 8.49053 3.74724Z" fill="#3C79AB" />
</svg>
