<svg width="40" height="40" viewBox="0 0 40 40" fill="none" xmlns="http://www.w3.org/2000/svg">
    <path d="M9.6582 27.6738H19.5582C19.5582 27.6738 17.6718 17.9364 23.9394 13.9959C25.3074 13.2452 29.658 10.4471 36.7788 16.3841C37.0056 16.1711 37.218 16.0027 37.218 16.0027C37.218 16.0027 30.6984 8.66558 23.439 9.48533C19.7904 9.85259 15.3012 13.5901 12.6678 18.5431C10.0344 23.496 9.6582 27.6738 9.6582 27.6738Z" fill="#CB2026" />
    <path d="M9.6582 27.6738H19.5582C19.5582 27.6738 17.6718 17.9364 23.9394 13.9959C25.3074 13.2452 29.658 10.4471 36.7788 16.3841C37.0056 16.1711 37.218 16.0027 37.218 16.0027C37.218 16.0027 30.6984 8.66558 23.439 9.48533C19.7904 9.85259 15.3012 13.5901 12.6678 18.5431C10.0344 23.496 9.6582 27.6738 9.6582 27.6738Z" fill="#CB2026" />
    <path d="M9.6582 27.6738H19.5582C19.5582 27.6738 17.6718 17.9363 23.9394 13.9958C25.3074 13.2451 29.658 10.447 36.7788 16.384C37.0056 16.171 37.218 16.0026 37.218 16.0026C37.218 16.0026 30.6984 8.66548 23.439 9.48522C19.7778 9.85248 15.2886 13.59 12.6552 18.5429C10.0218 23.4959 9.6582 27.6738 9.6582 27.6738ZM30.297 10.2766L30.3474 9.32898C29.9586 9.11555 29.5508 8.94957 29.1306 8.83389L29.0802 9.76726C29.4942 9.92147 29.8956 10.0919 30.297 10.2766Z" fill="#CB2026" />
    <path d="M29.1054 13.2715L29.055 14.1623C29.4728 14.177 29.8884 14.234 30.297 14.3327L30.3474 13.4561C29.9378 13.3616 29.5228 13.2999 29.1054 13.2715ZM24.4668 8.86235H24.5928L24.3408 8C23.9388 8.0009 23.5372 8.02935 23.1384 8.08522L23.376 8.92322C23.7386 8.88169 24.1024 8.86136 24.4668 8.86235ZM25.068 14.0628L25.3578 15.0388C25.71 14.8435 26.0746 14.678 26.4486 14.5437L26.1714 13.6104C25.7956 13.735 25.4272 13.8861 25.068 14.0628ZM19.3764 10.3436L18.8112 9.36962C18.498 9.55223 18.1722 9.75108 17.8338 9.97833L18.4116 10.9685C18.7374 10.7494 19.0506 10.5302 19.3764 10.3436ZM21.9468 16.7067L22.548 17.7212C22.7699 17.3649 23.0172 17.0297 23.2878 16.7189L22.7244 15.7571C22.4428 16.0493 22.1827 16.3669 21.9468 16.7067ZM20.1288 21.2579L21.144 22.1628C21.1956 21.6051 21.2834 21.0524 21.4068 20.5092L20.5068 19.6975C20.3528 20.2085 20.2265 20.7296 20.1288 21.2579ZM14.637 14.5437L13.746 13.6672C13.4202 14.0202 13.107 14.3753 12.819 14.7284L13.7838 15.6597C14.0509 15.2714 14.3357 14.8989 14.637 14.5437ZM10.857 20.8622L9.41702 20.2677C9.17942 20.8764 8.91482 21.5825 8.79062 21.964L10.2306 22.5585C10.3854 22.0776 10.65 21.3857 10.8498 20.8622H10.857ZM19.9398 24.8473C19.9572 25.4443 20.0077 26.039 20.091 26.6288L21.5958 27.2375C21.4678 26.6351 21.3675 26.0255 21.2952 25.4114L19.9398 24.8473Z" fill="#CB2026" />
</svg>
