<svg width="28" height="25" viewBox="0 0 28 25" fill="none" xmlns="http://www.w3.org/2000/svg">
    <path d="M23.0269 8.07483C22.7275 7.9726 22.4263 7.87949 22.1251 7.79186C22.1762 7.58739 22.2218 7.38291 22.2638 7.17662C22.9466 3.8649 22.5011 1.1958 20.9859 0.317666C19.5253 -0.525782 17.1337 0.352354 14.7221 2.45367C14.4847 2.65997 14.2511 2.87357 14.0247 3.09265C13.8731 2.9466 13.7179 2.8042 13.5609 2.66362C11.0232 0.418077 8.48743 -0.518479 6.96484 0.354179C5.50432 1.19945 5.07347 3.70606 5.68689 6.84617C5.74896 7.15836 5.81833 7.46689 5.89501 7.77543C5.52988 7.87584 5.18849 7.98538 4.85804 8.10039C1.89319 9.13371 0 10.7531 0 12.4436C0 14.1798 2.03194 15.9123 5.12094 16.9749C5.37105 17.0607 5.62481 17.1392 5.87858 17.2122C5.79582 17.5445 5.72279 17.878 5.6595 18.2127C5.07347 21.298 5.53171 23.7462 6.98675 24.586C8.49108 25.4532 11.0141 24.5623 13.4714 22.4153C13.665 22.2455 13.8603 22.0648 14.0557 21.8768C14.2991 22.1141 14.5511 22.3441 14.8115 22.5668C17.1849 24.6152 19.5418 25.4422 20.9968 24.6006C22.4993 23.7316 22.9868 21.1009 22.3533 17.8987C22.3058 17.6522 22.2474 17.4039 22.1853 17.1483C22.3679 17.0972 22.5377 17.0424 22.7056 16.9877C25.9169 15.9233 28 14.2035 28 12.4436C28.0055 10.7476 26.052 9.11545 23.0269 8.07483ZM15.498 3.35554C17.5664 1.55545 19.4998 0.845278 20.3779 1.34733C21.3163 1.89502 21.6814 4.06937 21.0917 6.92833C21.0534 7.11089 21.0114 7.29346 20.9658 7.48515C19.7318 7.20627 18.4811 7.0087 17.2214 6.89364C16.4972 5.85694 15.7045 4.8701 14.848 3.93975C15.0622 3.74258 15.2789 3.54784 15.498 3.35554ZM8.26835 13.8694C8.52272 14.3563 8.78805 14.8395 9.06433 15.319C9.34061 15.7985 9.63332 16.2781 9.94247 16.7576C9.02964 16.6536 8.16064 16.5148 7.361 16.3414C7.61294 15.5472 7.91417 14.7129 8.26835 13.8694ZM8.26835 11.0561C7.91965 10.2291 7.62207 9.41303 7.37743 8.63348C8.17707 8.45092 9.02964 8.30852 9.91691 8.19715C9.61872 8.66087 9.3327 9.13125 9.05885 9.60838C8.78501 10.0855 8.52151 10.568 8.26835 11.0561ZM8.90367 12.4637C9.2688 11.6957 9.66619 10.9429 10.0958 10.2054C10.5218 9.4678 10.9721 8.74728 11.4468 8.0438C12.2793 7.9799 13.1337 7.94704 14.0028 7.94704C14.8718 7.94704 15.7262 7.9799 16.5587 8.0438C17.0333 8.74485 17.4831 9.46293 17.9078 10.1981C18.3324 10.9332 18.7348 11.6817 19.1146 12.4436C18.7409 13.214 18.3397 13.9698 17.9115 14.7111C17.4879 15.4486 17.0398 16.171 16.5678 16.8781C15.7353 16.9384 14.8772 16.9694 14.0119 16.9694C13.1465 16.9694 12.2921 16.942 11.476 16.8891C10.9892 16.1832 10.5328 15.4589 10.1068 14.7165C9.68079 13.9741 9.27976 13.2232 8.90367 12.4637ZM18.9448 15.3099C19.2284 14.823 19.499 14.3283 19.7572 13.8256C20.1134 14.6302 20.4272 15.4529 20.6974 16.2903C19.8353 16.4832 18.9639 16.6319 18.0867 16.7357C18.3835 16.2647 18.6701 15.7894 18.9466 15.3099H18.9448ZM19.7462 11.0561C19.487 10.5693 19.2178 10.0824 18.9393 9.5956C18.6655 9.12213 18.3817 8.65539 18.0886 8.19533C18.9813 8.30852 19.8394 8.45822 20.6445 8.64261C20.3864 9.46168 20.0872 10.2672 19.7481 11.0561H19.7462ZM14.0137 4.80145C14.5949 5.43619 15.1434 6.10038 15.6568 6.79141C14.5541 6.73907 13.455 6.73664 12.3596 6.7841C12.9073 6.0721 13.455 5.40574 14.0155 4.80145H14.0137ZM7.56548 1.38749C8.50203 0.839801 10.5741 1.61935 12.7576 3.55819C12.8964 3.68233 13.0369 3.81195 13.1775 3.94705C12.3174 4.87693 11.5203 5.86313 10.7914 6.89912C9.53446 7.0117 8.28616 7.20562 7.05429 7.47967C6.98309 7.19487 6.9192 6.90642 6.86078 6.61797C6.33499 3.92697 6.68551 1.89868 7.56548 1.38749ZM6.19989 16.0493C5.96621 15.9835 5.73618 15.9123 5.50797 15.832C4.14422 15.3646 3.01414 14.7585 2.24007 14.0976C1.54632 13.5025 1.19397 12.9128 1.19397 12.4327C1.19397 11.4139 2.71473 10.1123 5.25056 9.22864C5.57065 9.11789 5.89197 9.01624 6.2145 8.92376C6.59024 10.132 7.04582 11.314 7.57825 12.4619C7.04158 13.6265 6.58115 14.8249 6.19989 16.0493ZM12.6828 21.5043C11.5874 22.4537 10.5084 23.1273 9.54813 23.4651C8.68642 23.7699 7.99998 23.7791 7.58556 23.5399C6.70012 23.0324 6.33499 21.0625 6.83522 18.4245C6.89486 18.1117 6.96301 17.8013 7.03969 17.4934C8.28348 17.7624 9.54435 17.9453 10.8133 18.0411C11.548 19.0827 12.3512 20.0744 13.2177 21.0096C13.0424 21.1794 12.8653 21.3455 12.6828 21.5043ZM14.0484 20.1515C13.4824 19.5399 12.9164 18.8736 12.3633 18.1433C12.9 18.1628 13.4477 18.1731 14.0064 18.1743C14.5651 18.1756 15.1284 18.1628 15.697 18.136C15.1823 18.8356 14.632 19.5083 14.0484 20.1515ZM21.3145 21.8165C21.1483 22.7147 20.8106 23.3154 20.4017 23.5545C19.5199 24.0657 17.6303 23.4012 15.5966 21.6504C15.3629 21.4496 15.1274 21.2341 14.8919 21.0077C15.74 20.0675 16.5244 19.0713 17.2396 18.0265C18.5156 17.9194 19.7826 17.7236 21.0315 17.4404C21.0899 17.6723 21.1392 17.8987 21.183 18.1178C21.4605 19.5345 21.4989 20.8161 21.3145 21.8165ZM22.3295 15.8411C22.1762 15.8904 22.0192 15.9415 21.8585 15.9872C21.4668 14.7751 20.993 13.5911 20.44 12.4436C20.9719 11.3099 21.4277 10.142 21.8037 8.94749C22.091 9.03026 22.3685 9.11789 22.6362 9.21039C25.2287 10.1013 26.8078 11.4212 26.8078 12.4381C26.8097 13.5171 25.1009 14.9228 22.3295 15.8411Z" fill="#54C1DE" />
    <path d="M13.9899 14.9356C14.4849 14.9356 14.9689 14.7887 15.3805 14.5135C15.7919 14.2382 16.1124 13.8471 16.3014 13.3895C16.4905 12.932 16.5396 12.4286 16.4422 11.9432C16.3449 11.4578 16.1059 11.0121 15.7552 10.6627C15.4046 10.3133 14.958 10.0758 14.4721 9.98034C13.9864 9.88486 13.4832 9.93569 13.0264 10.1264C12.5695 10.3171 12.1795 10.6391 11.9058 11.0516C11.6321 11.4641 11.4869 11.9486 11.4887 12.4436C11.4907 13.1055 11.7551 13.7397 12.224 14.2068C12.6929 14.674 13.328 14.9361 13.9899 14.9356Z" fill="#54C1DE" />
</svg>
