<svg width="62" height="63" viewBox="0 0 62 63" fill="none" xmlns="http://www.w3.org/2000/svg">
<g filter="url(#filter0_dd)">
<g clip-path="url(#clip0)">
<path d="M13.2354 34.7018L15.1837 32.7535L26.2351 43.8049L24.2868 45.7532L13.2354 34.7018Z" fill="white"/>
<path d="M35.676 44.2015L46.7275 33.1501L48.6758 35.0984L37.6244 46.1498L35.676 44.2015Z" fill="white"/>
<path d="M12.6091 42.0632L16.1344 38.5392L20.4427 42.8488L16.9173 46.3729L12.6091 42.0632Z" fill="#FCC00F"/>
<path d="M9.09673 52.9419C7.41108 52.9131 6.06784 51.5233 6.09671 49.8377C6.11029 49.0449 6.4317 48.2885 6.99306 47.7284L8.9824 45.7391L13.2926 50.0493L11.2576 51.9929C10.6952 52.5883 9.91562 52.9306 9.09673 52.9419Z" fill="#FCC00F"/>
<path d="M8.93079 45.7427L12.6172 42.0562L16.9262 46.3652L13.2397 50.0516L8.93079 45.7427Z" fill="#FCC00F"/>
<path d="M35.1411 32.1224L39.257 28.4409L44.6877 34.5005L41.0977 38.079L35.1411 32.1224Z" fill="url(#paint0_linear)"/>
<path d="M6.59297 13.9896L6.04419 3.0254L17.0084 3.57418L31.0024 19.2145L22.7478 28.4409L6.59297 13.9896Z" fill="url(#paint1_linear)"/>
<path d="M41.5465 42.8344L45.8555 38.5254L49.3803 42.0502L45.0713 46.3592L41.5465 42.8344Z" fill="#FCC00F"/>
<path d="M52.9081 52.919C52.0933 52.9099 51.3157 52.5766 50.7472 51.9929L48.7579 50.0036L53.0681 45.6933L55.0117 47.7284C56.1692 48.9143 56.1692 50.807 55.0117 51.9929C54.4572 52.5629 53.7029 52.895 52.9081 52.919Z" fill="#FCC00F"/>
<path d="M45.0806 46.3745L49.3895 42.0655L53.0759 45.7519L48.767 50.0609L45.0806 46.3745Z" fill="#FCC00F"/>
<path d="M31.0024 35.8267L35.1411 32.1224L41.0977 38.079L37.5192 41.6689L31.0024 35.8267Z" fill="url(#paint2_linear)"/>
<path d="M17.3171 34.5005L44.9964 3.57418L55.9606 3.0254L55.4118 13.9896L24.4856 41.6689L17.3171 34.5005Z" fill="url(#paint3_linear)"/>
<path d="M53.8685 44.9393L50.1985 41.2464L47.4774 38.5254L49.8898 36.113C50.3331 35.6671 50.3331 34.9468 49.8898 34.501L47.283 31.8942C46.8372 31.4509 46.1169 31.4509 45.671 31.8942L44.7335 32.8317L40.8806 28.5215L56.1551 14.8476C56.3831 14.6423 56.519 14.3539 56.5323 14.0473L57.0811 3.08307C57.0987 2.75951 56.9782 2.44368 56.7496 2.21416C56.52 1.9855 56.2042 1.86502 55.8807 1.8826L44.9164 2.41995C44.6099 2.43324 44.3215 2.56915 44.1161 2.79724L31.0025 17.5001L17.8659 2.83154C17.6606 2.60345 17.3722 2.46754 17.0656 2.45425L6.1014 1.9169C5.77784 1.89932 5.46201 2.0198 5.23249 2.24846C5.00383 2.47798 4.88335 2.79381 4.90093 3.11737L5.44972 14.0816C5.46301 14.3882 5.59892 14.6766 5.827 14.8819L21.1244 28.6015L17.2829 32.8432L16.3454 31.9057C15.8995 31.4623 15.1792 31.4623 14.7333 31.9057L12.1266 34.5124C11.6833 34.9583 11.6833 35.6785 12.1266 36.1244L14.5389 38.5368L11.8065 41.2464L6.08996 46.9629C4.45462 48.6047 4.45976 51.2614 6.10154 52.8968C6.88513 53.6772 7.94511 54.1168 9.05111 54.12C10.1618 54.1237 11.228 53.6832 12.0123 52.8966L20.4041 44.5048L22.8164 46.9172C23.2623 47.3605 23.9826 47.3605 24.4285 46.9172L27.0352 44.3105C27.4785 43.8646 27.4785 43.1443 27.0352 42.6984L26.1434 41.7037L31.0025 37.3706L35.8615 41.7037L34.924 42.6413C34.4807 43.0871 34.4807 43.8074 34.924 44.2533L37.5307 46.86C37.9766 47.3033 38.6969 47.3033 39.1428 46.86L41.5551 44.4477L44.2762 47.1687L47.9576 50.8501L49.9469 52.8395C51.5724 54.4911 54.229 54.5123 55.8807 52.8868C57.5323 51.2613 57.5534 48.6047 55.928 46.9531C55.9122 46.9372 55.8965 46.9213 55.8807 46.9058L53.8685 44.9393ZM43.0871 34.4552L41.0749 36.4674L36.7761 32.1686L39.1428 30.0535L43.0871 34.4552ZM7.64485 13.4528L7.18753 4.22637L16.414 4.68369L29.4018 19.2036L26.7494 22.1647L21.9475 17.3629C21.4679 16.9522 13.6775 9.788 13.2667 10.2676C12.9002 10.6956 19.9689 18.5469 20.3355 18.9749L25.286 23.8797L22.6564 26.8408L7.64485 13.4528ZM10.3773 51.1817C10.0203 51.541 9.53472 51.7426 9.02824 51.7419C7.97669 51.6639 7.18739 50.7481 7.26556 49.6966C7.29672 49.276 7.46635 48.8777 7.74775 48.5635L8.89105 47.4202L11.5664 50.0613L10.3773 51.1817ZM13.167 48.392L10.5374 45.751L12.6068 43.6817L15.305 46.3798L13.167 48.392ZM16.8598 44.6992L14.1617 42.001L16.1396 40.1489L18.8378 42.847L16.8598 44.6992ZM23.6053 44.3905L21.2044 41.9896L16.8941 37.6793L14.5389 35.3127L15.5222 34.3295L24.6686 43.4759L23.6053 44.3905ZM24.4628 40.0345L22.4506 38.0223L41.5437 18.9292C42.0233 18.5185 49.1441 10.7472 48.7334 10.2676C48.3227 9.788 40.536 16.7817 40.0564 17.1924C40.0117 17.2307 39.9699 17.2724 39.9316 17.3172L20.8385 36.4103L18.8263 34.3981L23.5138 29.1617L45.5338 4.69512L54.7602 4.2378L54.3029 13.4642L38.5025 27.584L24.4628 40.0345ZM32.6488 35.77L35.1069 33.7006L39.4857 38.0795L37.4735 40.0917L32.6488 35.77ZM40.6519 41.9781L38.331 44.4477L37.3478 43.4644L46.4942 34.318L47.4774 35.3013L45.065 37.7136L40.6519 41.9781ZM43.0757 42.7899L45.8654 40.1489L47.7747 42.0582L45.0765 44.7564L43.0757 42.7899ZM48.6779 48.392L46.6085 46.3227L49.3067 43.6245L51.3761 45.6939L48.6779 48.392ZM54.1657 51.1817C53.4104 51.9018 52.2228 51.9018 51.4675 51.1817L50.3242 50.0384L53.0796 47.4202L54.2229 48.5635C54.9617 49.2968 54.9769 50.4869 54.2572 51.2389L54.1657 51.1817Z" fill="#3A302B"/>
</g>
</g>
<g filter="url(#filter1_dd)">
<path d="M47.1502 13.9428L47.1503 13.9428C47.444 14.0309 47.6451 14.3012 47.6451 14.608V32.2008C47.6451 34.3481 46.7768 36.585 44.9984 38.8545C43.6392 40.589 41.7464 42.3459 39.3613 44.0725C35.3503 46.9759 31.3966 48.7586 31.2412 48.8282L31.2408 48.8283C31.1509 48.8687 31.0542 48.8889 30.9573 48.8889C30.8606 48.8889 30.7639 48.8687 30.6736 48.8283L30.6734 48.8282C30.518 48.7586 26.5642 46.9759 22.5533 44.0725C20.1681 42.3459 18.2752 40.589 16.9161 38.8546C15.1377 36.5849 14.2692 34.348 14.2692 32.2008V14.608C14.2692 14.3012 14.4704 14.0309 14.7641 13.9428L14.7641 13.9428L30.7577 9.14471L30.7577 9.1447C30.888 9.10561 31.0267 9.10562 31.1569 9.14469L31.157 9.14471L47.1502 13.9428Z" fill="url(#paint4_radial)" stroke="url(#paint5_linear)"/>
</g>
<defs>
<filter id="filter0_dd" x="0.866699" y="1.86667" width="60.2667" height="60.2667" filterUnits="userSpaceOnUse" color-interpolation-filters="sRGB">
<feFlood flood-opacity="0" result="BackgroundImageFix"/>
<feColorMatrix in="SourceAlpha" type="matrix" values="0 0 0 0 0 0 0 0 0 0 0 0 0 0 0 0 0 0 127 0"/>
<feOffset dy="4"/>
<feGaussianBlur stdDeviation="2"/>
<feColorMatrix type="matrix" values="0 0 0 0 0 0 0 0 0 0 0 0 0 0 0 0 0 0 0.25 0"/>
<feBlend mode="normal" in2="BackgroundImageFix" result="effect1_dropShadow"/>
<feColorMatrix in="SourceAlpha" type="matrix" values="0 0 0 0 0 0 0 0 0 0 0 0 0 0 0 0 0 0 127 0"/>
<feOffset dy="4"/>
<feGaussianBlur stdDeviation="2"/>
<feColorMatrix type="matrix" values="0 0 0 0 0 0 0 0 0 0 0 0 0 0 0 0 0 0 0.25 0"/>
<feBlend mode="normal" in2="effect1_dropShadow" result="effect2_dropShadow"/>
<feBlend mode="normal" in="SourceGraphic" in2="effect2_dropShadow" result="shape"/>
</filter>
<filter id="filter1_dd" x="-1" y="0" width="64" height="64" filterUnits="userSpaceOnUse" color-interpolation-filters="sRGB">
<feFlood flood-opacity="0" result="BackgroundImageFix"/>
<feColorMatrix in="SourceAlpha" type="matrix" values="0 0 0 0 0 0 0 0 0 0 0 0 0 0 0 0 0 0 127 0"/>
<feOffset dy="4"/>
<feGaussianBlur stdDeviation="2"/>
<feColorMatrix type="matrix" values="0 0 0 0 0 0 0 0 0 0 0 0 0 0 0 0 0 0 0.25 0"/>
<feBlend mode="normal" in2="BackgroundImageFix" result="effect1_dropShadow"/>
<feColorMatrix in="SourceAlpha" type="matrix" values="0 0 0 0 0 0 0 0 0 0 0 0 0 0 0 0 0 0 127 0"/>
<feOffset dy="4"/>
<feGaussianBlur stdDeviation="2"/>
<feColorMatrix type="matrix" values="0 0 0 0 0 0 0 0 0 0 0 0 0 0 0 0 0 0 0.25 0"/>
<feBlend mode="normal" in2="effect1_dropShadow" result="effect2_dropShadow"/>
<feBlend mode="normal" in="SourceGraphic" in2="effect2_dropShadow" result="shape"/>
</filter>
<linearGradient id="paint0_linear" x1="39.9144" y1="28.4409" x2="39.9144" y2="38.079" gradientUnits="userSpaceOnUse">
<stop stop-color="#D7D5D2"/>
<stop offset="1" stop-color="#686868"/>
</linearGradient>
<linearGradient id="paint1_linear" x1="18.5233" y1="3.0254" x2="18.5233" y2="28.4409" gradientUnits="userSpaceOnUse">
<stop stop-color="#D7D5D2"/>
<stop offset="1" stop-color="#686868"/>
</linearGradient>
<linearGradient id="paint2_linear" x1="36.05" y1="32.1224" x2="36.05" y2="41.6689" gradientUnits="userSpaceOnUse">
<stop stop-color="#DBDBDB"/>
<stop offset="0.864583" stop-color="#848484"/>
</linearGradient>
<linearGradient id="paint3_linear" x1="36.6389" y1="3.0254" x2="36.6389" y2="41.6689" gradientUnits="userSpaceOnUse">
<stop stop-color="#DBDBDB"/>
<stop offset="0.864583" stop-color="#848484"/>
</linearGradient>
<radialGradient id="paint4_radial" cx="0" cy="0" r="1" gradientUnits="userSpaceOnUse" gradientTransform="translate(45.0711 21.1611) rotate(116.565) scale(31.5597 26.6078)">
<stop stop-color="#999999"/>
<stop offset="1" stop-color="#414141"/>
</radialGradient>
<linearGradient id="paint5_linear" x1="30.9572" y1="8.61538" x2="30.9572" y2="49.3889" gradientUnits="userSpaceOnUse">
<stop offset="0.192708" stop-color="#818181"/>
<stop offset="1"/>
</linearGradient>
<clipPath id="clip0">
<rect x="4.8667" y="1.86667" width="52.2667" height="52.2667" fill="white"/>
</clipPath>
</defs>
</svg>
