<svg width="23" height="23" viewBox="0 0 23 23" fill="none" xmlns="http://www.w3.org/2000/svg">
    <path d="M23 9.85714C23 16.2084 17.8513 23 11.5 23C5.14873 23 0 17.8513 0 11.5C0 5.14873 5.14873 0 11.5 0C24.6429 10.6786 18.4821 -6.16071 23 9.85714Z" fill="white" />
    <path d="M20.9173 1.21621C20.5954 1.98875 20.1833 2.72043 19.6896 3.39596C18.6118 2.3125 17.3296 1.45434 15.9176 0.871367C14.5055 0.288398 12.9918 -0.00774613 11.4644 0.000153992C9.93704 0.00805412 8.42646 0.31984 7.02051 0.917386C5.61456 1.51493 4.34129 2.38631 3.27474 3.48087C2.20819 4.57542 1.36964 5.87131 0.807838 7.29318C0.246034 8.71506 -0.027809 10.2346 0.00222878 11.7633C0.0322665 13.2921 0.365586 14.7996 0.982808 16.1983C1.60003 17.597 2.48884 18.8588 3.59756 19.9106L4.02342 20.2869C5.64852 21.6577 7.62075 22.5518 9.72191 22.8701C11.8231 23.1885 13.9713 22.9188 15.9288 22.0908C17.8863 21.2629 19.5769 19.909 20.8136 18.1788C22.0502 16.4487 22.7846 14.4099 22.9356 12.2879C23.2498 9.35111 22.3884 5.63431 20.9176 1.21657L20.9173 1.21621ZM5.23671 19.9774C5.11408 20.1291 4.94927 20.241 4.76312 20.2989C4.57697 20.3567 4.37785 20.3581 4.19095 20.3026C4.00406 20.2472 3.83778 20.1375 3.71317 19.9875C3.58856 19.8374 3.5112 19.6537 3.4909 19.4597C3.47059 19.2656 3.50824 19.0698 3.59909 18.8972C3.68994 18.7245 3.8299 18.5828 4.00127 18.4898C4.17264 18.3968 4.36771 18.3567 4.5618 18.3748C4.75589 18.3928 4.94028 18.468 5.09165 18.591C5.29439 18.7557 5.42355 18.9942 5.45075 19.2541C5.47795 19.5141 5.40096 19.7742 5.23671 19.9774V19.9774ZM20.8699 16.523C18.026 20.3153 11.9542 19.0356 8.06115 19.2197C8.06115 19.2197 7.37102 19.2603 6.67622 19.3742C6.67622 19.3742 6.93834 19.2628 7.27335 19.1359C10.0073 18.1834 11.2996 18 12.9603 17.1445C16.0871 15.5532 19.1801 12.0683 19.8228 8.44563C18.6332 11.9306 15.021 14.9274 11.733 16.1445C9.47948 16.9759 5.40835 17.7858 5.40835 17.7858L5.24425 17.6977C2.47439 16.3498 2.38893 10.3443 7.42632 8.40753C9.63208 7.55705 11.7423 8.02399 14.1244 7.45497C16.668 6.85 19.611 4.94235 20.8085 2.45274C22.1478 6.43554 23.7615 12.6693 20.8681 16.5255L20.8699 16.523Z" fill="#68BD45" />
</svg>
