<svg width="22" height="22" viewBox="0 0 22 22" fill="none" xmlns="http://www.w3.org/2000/svg">
    <path d="M0 11V22H11H22V11V0H11H0V11Z" fill="#007ACC" />
    <path d="M5.03537 10.9761L5.02856 11.8871H6.42161H7.81466V16.0006V20.1143H8.79998H9.7853V16.0006V11.8871H11.1783H12.5714V10.9937C12.5714 10.4994 12.5612 10.0863 12.5476 10.0757C12.5374 10.0616 10.842 10.0545 8.78639 10.058L5.04556 10.0686L5.03537 10.9761Z" fill="white" />
    <path d="M17.6598 10.1467C18.2035 10.2849 18.6182 10.5303 18.9988 10.9311C19.1959 11.1453 19.4881 11.5358 19.5119 11.6291C19.5187 11.6568 18.5876 12.2926 18.0234 12.6485C18.003 12.6623 17.9215 12.5724 17.8297 12.4342C17.5544 12.0265 17.2655 11.8503 16.8238 11.8191C16.1747 11.7742 15.7567 12.1197 15.76 12.6969C15.76 12.8662 15.7838 12.9663 15.8519 13.1045C15.9946 13.4052 16.2596 13.5848 17.0922 13.9511C18.6249 14.6215 19.2808 15.0637 19.6887 15.6926C20.144 16.394 20.2459 17.5136 19.9367 18.3464C19.5968 19.2517 18.7541 19.8667 17.568 20.0706C17.2009 20.1362 16.331 20.1258 15.9368 20.0533C15.0769 19.8977 14.2613 19.4659 13.7584 18.8992C13.5612 18.6781 13.1773 18.101 13.2011 18.0595C13.2113 18.0457 13.2996 17.9904 13.3982 17.9317C13.4933 17.8764 13.8536 17.6656 14.1934 17.4652L14.8085 17.1024L14.9377 17.2959C15.1177 17.5757 15.512 17.9593 15.7499 18.0872C16.4329 18.4535 17.3709 18.4016 17.8331 17.98C18.0302 17.7969 18.1118 17.6069 18.1118 17.327C18.1118 17.0748 18.0811 16.9641 17.9521 16.7742C17.7855 16.5323 17.4457 16.3284 16.4805 15.9034C15.3761 15.4197 14.9003 15.119 14.4653 14.6421C14.2138 14.3658 13.9759 13.9234 13.8774 13.5537C13.7958 13.2462 13.7753 12.4757 13.8399 12.1647C14.0677 11.0797 14.8731 10.323 16.0354 10.0984C16.4126 10.0258 17.2893 10.0534 17.6598 10.1467Z" fill="white" />
</svg>
